M48
; DRILL file KiCad 10.0.6 date 2026-09-04T14:44:59
; FORMAT={-:-/ absolute / metric / decimal}
; #@! TF.CreationDate,2026-09-04T14:44:59-04:00
; #@! TF.GenerationSoftware,Kicad,Pcbnew,10.0.6
; #@! TF.FileFunction,Plated,1,2,PTH
FMAT,2
METRIC
; #@! TA.AperFunction,Plated,PTH,ComponentDrill
T1C0.800
; #@! TA.AperFunction,Plated,PTH,ComponentDrill
T2C0.900
; #@! TA.AperFunction,Plated,PTH,ComponentDrill
T3C1.000
; #@! TA.AperFunction,Plated,PTH,ComponentDrill
T4C1.100
; #@! TA.AperFunction,Plated,PTH,ComponentDrill
T5C1.200
; #@! TA.AperFunction,Plated,PTH,ComponentDrill
T6C2.500
%
G90
G05
T1
X133.075Y-167.1
X143.235Y-167.1
T2
X136.76Y-176.475
X139.3Y-176.475
T3
X116.59Y-159.75
X119.13Y-159.75
X121.67Y-159.75
X124.21Y-159.75
X125.72Y-111.5
X126.75Y-159.75
X128.26Y-111.5
X129.29Y-159.75
X130.8Y-111.5
X131.83Y-159.75
X133.34Y-111.5
X134.37Y-159.75
X135.88Y-111.5
X136.91Y-159.75
X138.42Y-111.5
X139.45Y-159.75
X140.96Y-111.5
X143.495Y-159.75
X143.5Y-111.5
X146.035Y-159.75
X148.575Y-111.5
X148.575Y-159.75
X151.115Y-111.5
X151.115Y-159.75
X153.655Y-111.5
X153.655Y-159.75
X153.8Y-176.25
X156.195Y-111.5
X156.195Y-159.75
X158.735Y-111.5
X158.735Y-159.75
X161.275Y-111.5
X161.275Y-159.75
X161.4Y-176.25
T4
X99.45Y-168.45
X99.45Y-172.95
X105.95Y-168.45
X105.95Y-172.95
X117.75Y-168.5
X117.75Y-173.0
X124.25Y-168.5
X124.25Y-173.0
T5
X110.051Y-119.974
X112.591Y-119.974
X115.131Y-119.974
X117.671Y-119.974
X120.211Y-119.974
X122.751Y-119.974
X125.291Y-119.974
X127.831Y-119.974
X130.371Y-119.974
X132.911Y-119.974
X135.451Y-119.974
X137.991Y-119.974
X140.531Y-119.974
X143.071Y-119.974
X145.611Y-119.974
X148.151Y-119.974
X178.0Y-163.425
X178.0Y-168.425
X178.0Y-173.425
T6
X104.551Y-119.974
X104.551Y-150.975
X179.55Y-150.975
X179.551Y-119.974
M30
