%TF.GenerationSoftware,KiCad,Pcbnew,10.0.6*%
%TF.CreationDate,2026-09-04T14:44:53-04:00*%
%TF.ProjectId,MorgansMetronome,4d6f7267-616e-4734-9d65-74726f6e6f6d,rev?*%
%TF.SameCoordinates,Original*%
%TF.FileFunction,Copper,L2,Bot*%
%TF.FilePolarity,Positive*%
%FSLAX46Y46*%
G04 Gerber Fmt 4.6, Leading zero omitted, Abs format (unit mm)*
G04 Created by KiCad (PCBNEW 10.0.6) date 2026-09-04 14:44:53*
%MOMM*%
%LPD*%
G01*
G04 APERTURE LIST*
%TA.AperFunction,ComponentPad*%
%ADD10R,1.700000X1.700000*%
%TD*%
%TA.AperFunction,ComponentPad*%
%ADD11C,1.700000*%
%TD*%
%TA.AperFunction,ComponentPad*%
%ADD12C,2.000000*%
%TD*%
%TA.AperFunction,ComponentPad*%
%ADD13R,2.000000X2.000000*%
%TD*%
%TA.AperFunction,ComponentPad*%
%ADD14R,1.800000X1.800000*%
%TD*%
%TA.AperFunction,ComponentPad*%
%ADD15C,1.800000*%
%TD*%
%TA.AperFunction,ComponentPad*%
%ADD16R,3.000000X3.000000*%
%TD*%
%TA.AperFunction,ComponentPad*%
%ADD17C,3.000000*%
%TD*%
%TA.AperFunction,ComponentPad*%
%ADD18C,1.600000*%
%TD*%
%TA.AperFunction,ComponentPad*%
%ADD19R,1.800000X2.600000*%
%TD*%
%TA.AperFunction,ComponentPad*%
%ADD20O,1.800000X2.600000*%
%TD*%
G04 APERTURE END LIST*
D10*
%TO.P,J1,1,Pin_1_1*%
%TO.N,unconnected-(J1-Pin_1-Pad1)*%
X125720000Y-111500000D03*
D11*
%TO.P,J1,2,Pin_2_2*%
%TO.N,/IOREF*%
X128260000Y-111500000D03*
%TO.P,J1,3,Pin_3_3*%
%TO.N,/~{RESET}*%
X130800000Y-111500000D03*
%TO.P,J1,4,Pin_4_4*%
%TO.N,+3V3*%
X133340000Y-111500000D03*
%TO.P,J1,5,Pin_5_5*%
%TO.N,+5V*%
X135880000Y-111500000D03*
%TO.P,J1,6,Pin_6_6*%
%TO.N,GND*%
X138420000Y-111500000D03*
%TO.P,J1,7,Pin_7_7*%
X140960000Y-111500000D03*
%TO.P,J1,8,Pin_8_8*%
%TO.N,VCC*%
X143500000Y-111500000D03*
%TD*%
D10*
%TO.P,J3,1,Pin_1_1*%
%TO.N,/A0*%
X148575000Y-111500000D03*
D11*
%TO.P,J3,2,Pin_2_2*%
%TO.N,/A1*%
X151115000Y-111500000D03*
%TO.P,J3,3,Pin_3_3*%
%TO.N,/A2*%
X153655000Y-111500000D03*
%TO.P,J3,4,Pin_4_4*%
%TO.N,/A3*%
X156195000Y-111500000D03*
%TO.P,J3,5,Pin_5_5*%
%TO.N,/SDA{slash}A4*%
X158735000Y-111500000D03*
%TO.P,J3,6,Pin_6_6*%
%TO.N,/SCL{slash}A5*%
X161275000Y-111500000D03*
%TD*%
D10*
%TO.P,J2,1,Pin_1_1*%
%TO.N,/SCL{slash}A5*%
X116590000Y-159750000D03*
D11*
%TO.P,J2,2,Pin_2_2*%
%TO.N,/SDA{slash}A4*%
X119130000Y-159750000D03*
%TO.P,J2,3,Pin_3_3*%
%TO.N,/AREF*%
X121670000Y-159750000D03*
%TO.P,J2,4,Pin_4_4*%
%TO.N,GND*%
X124210000Y-159750000D03*
%TO.P,J2,5,Pin_5_5*%
%TO.N,/13*%
X126750000Y-159750000D03*
%TO.P,J2,6,Pin_6_6*%
%TO.N,/12*%
X129290000Y-159750000D03*
%TO.P,J2,7,Pin_7_7*%
%TO.N,/\u002A11*%
X131830000Y-159750000D03*
%TO.P,J2,8,Pin_8_8*%
%TO.N,/\u002A10*%
X134370000Y-159750000D03*
%TO.P,J2,9,Pin_9_9*%
%TO.N,/\u002A9*%
X136910000Y-159750000D03*
%TO.P,J2,10,Pin_10_10*%
%TO.N,/8*%
X139450000Y-159750000D03*
%TD*%
D10*
%TO.P,J4,1,Pin_1_1*%
%TO.N,/7*%
X143495000Y-159750000D03*
D11*
%TO.P,J4,2,Pin_2_2*%
%TO.N,/\u002A6*%
X146035000Y-159750000D03*
%TO.P,J4,3,Pin_3_3*%
%TO.N,/\u002A5*%
X148575000Y-159750000D03*
%TO.P,J4,4,Pin_4_4*%
%TO.N,/4*%
X151115000Y-159750000D03*
%TO.P,J4,5,Pin_5_5*%
%TO.N,/\u002A3*%
X153655000Y-159750000D03*
%TO.P,J4,6,Pin_6_6*%
%TO.N,/2*%
X156195000Y-159750000D03*
%TO.P,J4,7,Pin_7_7*%
%TO.N,/TX{slash}1*%
X158735000Y-159750000D03*
%TO.P,J4,8,Pin_8_8*%
%TO.N,/RX{slash}0*%
X161275000Y-159750000D03*
%TD*%
D12*
%TO.P,SW2,1,1_1*%
%TO.N,/7*%
X99450000Y-168450000D03*
X105950000Y-168450000D03*
%TO.P,SW2,2,2_2*%
%TO.N,GND*%
X99450000Y-172950000D03*
X105950000Y-172950000D03*
%TD*%
D13*
%TO.P,BZ1,1,+_1*%
%TO.N,/\u002A9*%
X153800000Y-176250000D03*
D12*
%TO.P,BZ1,2,-_2*%
%TO.N,GND*%
X161400000Y-176250000D03*
%TD*%
D14*
%TO.P,D1,1,K_1*%
%TO.N,GND*%
X136760000Y-176475000D03*
D15*
%TO.P,D1,2,A_2*%
%TO.N,Net-(D1-A)*%
X139300000Y-176475000D03*
%TD*%
D12*
%TO.P,SW1,1,1_1*%
%TO.N,/\u002A3*%
X117750000Y-168500000D03*
X124250000Y-168500000D03*
%TO.P,SW1,2,2_2*%
%TO.N,GND*%
X117750000Y-173000000D03*
X124250000Y-173000000D03*
%TD*%
D16*
%TO.P,RV1,1,1_1*%
%TO.N,+5V*%
X178000000Y-173425000D03*
D17*
%TO.P,RV1,2,2_2*%
%TO.N,/SCL{slash}A5*%
X178000000Y-168425000D03*
%TO.P,RV1,3,3_3*%
%TO.N,GND*%
X178000000Y-163425000D03*
%TD*%
D18*
%TO.P,R1,1*%
%TO.N,/8*%
X133075000Y-167100000D03*
%TO.P,R1,2*%
%TO.N,Net-(D1-A)*%
X143235000Y-167100000D03*
%TD*%
D17*
%TO.P,DS1,*%
%TO.N,*%
X104551420Y-119974300D03*
X104551420Y-150975000D03*
X179550000Y-150975000D03*
X179550520Y-119974300D03*
D19*
%TO.P,DS1,1,VSS_1*%
%TO.N,GND*%
X110050520Y-119974300D03*
D20*
%TO.P,DS1,2,VDD_2*%
%TO.N,+5V*%
X112590520Y-119974300D03*
%TO.P,DS1,3,VO_3*%
%TO.N,GND*%
X115130520Y-119974300D03*
%TO.P,DS1,4,RS_4*%
%TO.N,/\u002A10*%
X117670520Y-119974300D03*
%TO.P,DS1,5,R/W_5*%
%TO.N,GND*%
X120210520Y-119974300D03*
%TO.P,DS1,6,E_6*%
%TO.N,/\u002A11*%
X122750520Y-119974300D03*
%TO.P,DS1,7,D0_7*%
%TO.N,unconnected-(DS1-D0-Pad7)*%
X125290520Y-119974300D03*
%TO.P,DS1,8,D1_8*%
%TO.N,unconnected-(DS1-D1-Pad8)*%
X127830520Y-119974300D03*
%TO.P,DS1,9,D2_9*%
%TO.N,unconnected-(DS1-D2-Pad9)*%
X130370520Y-119974300D03*
%TO.P,DS1,10,D3_10*%
%TO.N,unconnected-(DS1-D3-Pad10)*%
X132910520Y-119974300D03*
%TO.P,DS1,11,D4_11*%
%TO.N,/12*%
X135450520Y-119974300D03*
%TO.P,DS1,12,D5_12*%
%TO.N,/13*%
X137990520Y-119974300D03*
%TO.P,DS1,13,D6_13*%
%TO.N,/A0*%
X140530520Y-119974300D03*
%TO.P,DS1,14,D7_14*%
%TO.N,/A1*%
X143070520Y-119974300D03*
%TO.P,DS1,15,LED(+)_15*%
%TO.N,+3V3*%
X145610520Y-119974300D03*
%TO.P,DS1,16,LED(-)_16*%
%TO.N,GND*%
X148150520Y-119974300D03*
%TD*%
%TA.AperFunction,Conductor*%
%TO.N,GND*%
G36*
X198466766Y-97437301D02*
G01*
X198503298Y-97454493D01*
X198555575Y-97500847D01*
X198574500Y-97566690D01*
X198574500Y-120411750D01*
X198500222Y-187150638D01*
X198480463Y-187217656D01*
X198427608Y-187263352D01*
X198376222Y-187274500D01*
X179030105Y-187274500D01*
X179029624Y-187274499D01*
X89023175Y-186925477D01*
X88956213Y-186905533D01*
X88910663Y-186852552D01*
X88899656Y-186801826D01*
X88868224Y-175527155D01*
X135360000Y-175527155D01*
X135360000Y-176225000D01*
X136384722Y-176225000D01*
X136340667Y-176301306D01*
X136310000Y-176415756D01*
X136310000Y-176534244D01*
X136340667Y-176648694D01*
X136384722Y-176725000D01*
X135360000Y-176725000D01*
X135360000Y-177422844D01*
X135366401Y-177482372D01*
X135366403Y-177482379D01*
X135416645Y-177617086D01*
X135416649Y-177617093D01*
X135502809Y-177732187D01*
X135502812Y-177732190D01*
X135617906Y-177818350D01*
X135617913Y-177818354D01*
X135752620Y-177868596D01*
X135752627Y-177868598D01*
X135812155Y-177874999D01*
X135812172Y-177875000D01*
X136510000Y-177875000D01*
X136510000Y-176850277D01*
X136586306Y-176894333D01*
X136700756Y-176925000D01*
X136819244Y-176925000D01*
X136933694Y-176894333D01*
X137010000Y-176850277D01*
X137010000Y-177875000D01*
X137707828Y-177875000D01*
X137707844Y-177874999D01*
X137767372Y-177868598D01*
X137767379Y-177868596D01*
X137902086Y-177818354D01*
X137902093Y-177818350D01*
X138017187Y-177732190D01*
X138017190Y-177732187D01*
X138103350Y-177617093D01*
X138103354Y-177617086D01*
X138130140Y-177545270D01*
X138172011Y-177489336D01*
X138237475Y-177464919D01*
X138305748Y-177479770D01*
X138334003Y-177500922D01*
X138382424Y-177549343D01*
X138561785Y-177679657D01*
X138627352Y-177713065D01*
X138759319Y-177780306D01*
X138759321Y-177780306D01*
X138759324Y-177780308D01*
X138970176Y-177848818D01*
X139189149Y-177883500D01*
X139189150Y-177883500D01*
X139410850Y-177883500D01*
X139410851Y-177883500D01*
X139629824Y-177848818D01*
X139840676Y-177780308D01*
X140038215Y-177679657D01*
X140217576Y-177549343D01*
X140374343Y-177392576D01*
X140504657Y-177213215D01*
X140605308Y-177015676D01*
X140673818Y-176804824D01*
X140708500Y-176585851D01*
X140708500Y-176364149D01*
X140673818Y-176145176D01*
X140605308Y-175934324D01*
X140605306Y-175934321D01*
X140605306Y-175934319D01*
X140504656Y-175736784D01*
X140374343Y-175557424D01*
X140217576Y-175400657D01*
X140038215Y-175270343D01*
X139902800Y-175201345D01*
X152291500Y-175201345D01*
X152291500Y-177298654D01*
X152298011Y-177359202D01*
X152298011Y-177359204D01*
X152337442Y-177464919D01*
X152349111Y-177496204D01*
X152436739Y-177613261D01*
X152553796Y-177700889D01*
X152690799Y-177751989D01*
X152718050Y-177754918D01*
X152751345Y-177758499D01*
X152751362Y-177758500D01*
X154848638Y-177758500D01*
X154848654Y-177758499D01*
X154875692Y-177755591D01*
X154909201Y-177751989D01*
X155046204Y-177700889D01*
X155163261Y-177613261D01*
X155250889Y-177496204D01*
X155289540Y-177392578D01*
X155293462Y-177382064D01*
X155301988Y-177359204D01*
X155301988Y-177359203D01*
X155301989Y-177359201D01*
X155305591Y-177325692D01*
X155308499Y-177298654D01*
X155308500Y-177298637D01*
X155308500Y-176131947D01*
X159900000Y-176131947D01*
X159900000Y-176368052D01*
X159936934Y-176601247D01*
X160009897Y-176825802D01*
X160117087Y-177036174D01*
X160177338Y-177119104D01*
X160177340Y-177119105D01*
X160917037Y-176379408D01*
X160934075Y-176442993D01*
X160999901Y-176557007D01*
X161092993Y-176650099D01*
X161207007Y-176715925D01*
X161270590Y-176732962D01*
X160530893Y-177472658D01*
X160613828Y-177532914D01*
X160824197Y-177640102D01*
X161048752Y-177713065D01*
X161048751Y-177713065D01*
X161281948Y-177750000D01*
X161518052Y-177750000D01*
X161751247Y-177713065D01*
X161975802Y-177640102D01*
X162186163Y-177532918D01*
X162186169Y-177532914D01*
X162269104Y-177472658D01*
X162269105Y-177472658D01*
X161529408Y-176732962D01*
X161592993Y-176715925D01*
X161707007Y-176650099D01*
X161800099Y-176557007D01*
X161865925Y-176442993D01*
X161882962Y-176379409D01*
X162622658Y-177119105D01*
X162622658Y-177119104D01*
X162682914Y-177036169D01*
X162682918Y-177036163D01*
X162790102Y-176825802D01*
X162863065Y-176601247D01*
X162900000Y-176368052D01*
X162900000Y-176131947D01*
X162863065Y-175898752D01*
X162790102Y-175674197D01*
X162682914Y-175463828D01*
X162622658Y-175380894D01*
X162622658Y-175380893D01*
X161882962Y-176120590D01*
X161865925Y-176057007D01*
X161800099Y-175942993D01*
X161707007Y-175849901D01*
X161592993Y-175784075D01*
X161529409Y-175767037D01*
X162269105Y-175027340D01*
X162269104Y-175027338D01*
X162186174Y-174967087D01*
X161975802Y-174859897D01*
X161751247Y-174786934D01*
X161751248Y-174786934D01*
X161518052Y-174750000D01*
X161281948Y-174750000D01*
X161048752Y-174786934D01*
X160824197Y-174859897D01*
X160613830Y-174967084D01*
X160530894Y-175027340D01*
X161270591Y-175767037D01*
X161207007Y-175784075D01*
X161092993Y-175849901D01*
X160999901Y-175942993D01*
X160934075Y-176057007D01*
X160917037Y-176120591D01*
X160177340Y-175380894D01*
X160117084Y-175463830D01*
X160009897Y-175674197D01*
X159936934Y-175898752D01*
X159900000Y-176131947D01*
X155308500Y-176131947D01*
X155308500Y-175201362D01*
X155308499Y-175201345D01*
X155301989Y-175140798D01*
X155293461Y-175117935D01*
X155293460Y-175117932D01*
X155250889Y-175003796D01*
X155223409Y-174967087D01*
X155163261Y-174886739D01*
X155046204Y-174799111D01*
X155013557Y-174786934D01*
X154909203Y-174748011D01*
X154848654Y-174741500D01*
X154848638Y-174741500D01*
X152751362Y-174741500D01*
X152751345Y-174741500D01*
X152690797Y-174748011D01*
X152690795Y-174748011D01*
X152553795Y-174799111D01*
X152436739Y-174886739D01*
X152349111Y-175003795D01*
X152298011Y-175140795D01*
X152298011Y-175140797D01*
X152291500Y-175201345D01*
X139902800Y-175201345D01*
X139840680Y-175169693D01*
X139629824Y-175101182D01*
X139410851Y-175066500D01*
X139189149Y-175066500D01*
X139079662Y-175083841D01*
X138970175Y-175101182D01*
X138759319Y-175169693D01*
X138561784Y-175270343D01*
X138523224Y-175298359D01*
X138382424Y-175400657D01*
X138382422Y-175400659D01*
X138382420Y-175400660D01*
X138334002Y-175449078D01*
X138272679Y-175482562D01*
X138202987Y-175477577D01*
X138147054Y-175435705D01*
X138130140Y-175404729D01*
X138103354Y-175332913D01*
X138103350Y-175332906D01*
X138017190Y-175217812D01*
X138017187Y-175217809D01*
X137902093Y-175131649D01*
X137902086Y-175131645D01*
X137767379Y-175081403D01*
X137767372Y-175081401D01*
X137707844Y-175075000D01*
X137010000Y-175075000D01*
X137010000Y-176099722D01*
X136933694Y-176055667D01*
X136819244Y-176025000D01*
X136700756Y-176025000D01*
X136586306Y-176055667D01*
X136510000Y-176099722D01*
X136510000Y-175075000D01*
X135812155Y-175075000D01*
X135752627Y-175081401D01*
X135752620Y-175081403D01*
X135617913Y-175131645D01*
X135617906Y-175131649D01*
X135502812Y-175217809D01*
X135502809Y-175217812D01*
X135416649Y-175332906D01*
X135416645Y-175332913D01*
X135366403Y-175467620D01*
X135366401Y-175467627D01*
X135360000Y-175527155D01*
X88868224Y-175527155D01*
X88860710Y-172831947D01*
X97950000Y-172831947D01*
X97950000Y-173068052D01*
X97986934Y-173301247D01*
X98059897Y-173525802D01*
X98167087Y-173736174D01*
X98227338Y-173819104D01*
X98227340Y-173819105D01*
X98926212Y-173120233D01*
X98937482Y-173162292D01*
X99009890Y-173287708D01*
X99112292Y-173390110D01*
X99237708Y-173462518D01*
X99279765Y-173473787D01*
X98580893Y-174172658D01*
X98663828Y-174232914D01*
X98874197Y-174340102D01*
X99098752Y-174413065D01*
X99098751Y-174413065D01*
X99331948Y-174450000D01*
X99568052Y-174450000D01*
X99801247Y-174413065D01*
X100025802Y-174340102D01*
X100236163Y-174232918D01*
X100236169Y-174232914D01*
X100319104Y-174172658D01*
X100319105Y-174172658D01*
X99620233Y-173473787D01*
X99662292Y-173462518D01*
X99787708Y-173390110D01*
X99890110Y-173287708D01*
X99962518Y-173162292D01*
X99973787Y-173120234D01*
X100672658Y-173819105D01*
X100672658Y-173819104D01*
X100732914Y-173736169D01*
X100732918Y-173736163D01*
X100840102Y-173525802D01*
X100913065Y-173301247D01*
X100950000Y-173068052D01*
X100950000Y-172831947D01*
X104450000Y-172831947D01*
X104450000Y-173068052D01*
X104486934Y-173301247D01*
X104559897Y-173525802D01*
X104667087Y-173736174D01*
X104727338Y-173819104D01*
X104727340Y-173819105D01*
X105426212Y-173120233D01*
X105437482Y-173162292D01*
X105509890Y-173287708D01*
X105612292Y-173390110D01*
X105737708Y-173462518D01*
X105779765Y-173473787D01*
X105080893Y-174172658D01*
X105163828Y-174232914D01*
X105374197Y-174340102D01*
X105598752Y-174413065D01*
X105598751Y-174413065D01*
X105831948Y-174450000D01*
X106068052Y-174450000D01*
X106301247Y-174413065D01*
X106525802Y-174340102D01*
X106736163Y-174232918D01*
X106736169Y-174232914D01*
X106819104Y-174172658D01*
X106819105Y-174172658D01*
X106120233Y-173473787D01*
X106162292Y-173462518D01*
X106287708Y-173390110D01*
X106390110Y-173287708D01*
X106462518Y-173162292D01*
X106473787Y-173120234D01*
X107172658Y-173819105D01*
X107172658Y-173819104D01*
X107232914Y-173736169D01*
X107232918Y-173736163D01*
X107340102Y-173525802D01*
X107413065Y-173301247D01*
X107450000Y-173068052D01*
X107450000Y-172881947D01*
X116250000Y-172881947D01*
X116250000Y-173118052D01*
X116286934Y-173351247D01*
X116359897Y-173575802D01*
X116467087Y-173786174D01*
X116527338Y-173869104D01*
X116527340Y-173869105D01*
X117226212Y-173170233D01*
X117237482Y-173212292D01*
X117309890Y-173337708D01*
X117412292Y-173440110D01*
X117537708Y-173512518D01*
X117579765Y-173523787D01*
X116880893Y-174222658D01*
X116963828Y-174282914D01*
X117174197Y-174390102D01*
X117398752Y-174463065D01*
X117398751Y-174463065D01*
X117631948Y-174500000D01*
X117868052Y-174500000D01*
X118101247Y-174463065D01*
X118325802Y-174390102D01*
X118536163Y-174282918D01*
X118536169Y-174282914D01*
X118619104Y-174222658D01*
X118619105Y-174222658D01*
X117920233Y-173523787D01*
X117962292Y-173512518D01*
X118087708Y-173440110D01*
X118190110Y-173337708D01*
X118262518Y-173212292D01*
X118273787Y-173170234D01*
X118972658Y-173869105D01*
X118972658Y-173869104D01*
X119032914Y-173786169D01*
X119032918Y-173786163D01*
X119140102Y-173575802D01*
X119213065Y-173351247D01*
X119250000Y-173118052D01*
X119250000Y-172881947D01*
X122750000Y-172881947D01*
X122750000Y-173118052D01*
X122786934Y-173351247D01*
X122859897Y-173575802D01*
X122967087Y-173786174D01*
X123027338Y-173869104D01*
X123027340Y-173869105D01*
X123726212Y-173170233D01*
X123737482Y-173212292D01*
X123809890Y-173337708D01*
X123912292Y-173440110D01*
X124037708Y-173512518D01*
X124079765Y-173523787D01*
X123380893Y-174222658D01*
X123463828Y-174282914D01*
X123674197Y-174390102D01*
X123898752Y-174463065D01*
X123898751Y-174463065D01*
X124131948Y-174500000D01*
X124368052Y-174500000D01*
X124601247Y-174463065D01*
X124825802Y-174390102D01*
X125036163Y-174282918D01*
X125036169Y-174282914D01*
X125119104Y-174222658D01*
X125119105Y-174222658D01*
X124420233Y-173523787D01*
X124462292Y-173512518D01*
X124587708Y-173440110D01*
X124690110Y-173337708D01*
X124762518Y-173212292D01*
X124773787Y-173170233D01*
X125472658Y-173869105D01*
X125472658Y-173869104D01*
X125532914Y-173786169D01*
X125532918Y-173786163D01*
X125640102Y-173575802D01*
X125713065Y-173351247D01*
X125750000Y-173118052D01*
X125750000Y-172881947D01*
X125713065Y-172648752D01*
X125640102Y-172424197D01*
X125532914Y-172213828D01*
X125472658Y-172130894D01*
X125472658Y-172130893D01*
X124773787Y-172829765D01*
X124762518Y-172787708D01*
X124690110Y-172662292D01*
X124587708Y-172559890D01*
X124462292Y-172487482D01*
X124420234Y-172476212D01*
X125020101Y-171876345D01*
X175991500Y-171876345D01*
X175991500Y-174973654D01*
X175998011Y-175034202D01*
X175998011Y-175034204D01*
X176037770Y-175140798D01*
X176049111Y-175171204D01*
X176136739Y-175288261D01*
X176253796Y-175375889D01*
X176390799Y-175426989D01*
X176418050Y-175429918D01*
X176451345Y-175433499D01*
X176451362Y-175433500D01*
X179548638Y-175433500D01*
X179548654Y-175433499D01*
X179575692Y-175430591D01*
X179609201Y-175426989D01*
X179746204Y-175375889D01*
X179863261Y-175288261D01*
X179950889Y-175171204D01*
X180001989Y-175034201D01*
X180005591Y-175000692D01*
X180008499Y-174973654D01*
X180008500Y-174973637D01*
X180008500Y-171876362D01*
X180008499Y-171876345D01*
X180005157Y-171845270D01*
X180001989Y-171815799D01*
X179987644Y-171777340D01*
X179979522Y-171755564D01*
X179950889Y-171678796D01*
X179863261Y-171561739D01*
X179746204Y-171474111D01*
X179609203Y-171423011D01*
X179548654Y-171416500D01*
X179548638Y-171416500D01*
X176451362Y-171416500D01*
X176451345Y-171416500D01*
X176390797Y-171423011D01*
X176390795Y-171423011D01*
X176253795Y-171474111D01*
X176136739Y-171561739D01*
X176049111Y-171678795D01*
X175998011Y-171815795D01*
X175998011Y-171815797D01*
X175991500Y-171876345D01*
X125020101Y-171876345D01*
X125111086Y-171785360D01*
X125119105Y-171777340D01*
X125119104Y-171777338D01*
X125036174Y-171717087D01*
X124825802Y-171609897D01*
X124601247Y-171536934D01*
X124601248Y-171536934D01*
X124368052Y-171500000D01*
X124131948Y-171500000D01*
X123898752Y-171536934D01*
X123674197Y-171609897D01*
X123463830Y-171717084D01*
X123380894Y-171777340D01*
X124079766Y-172476212D01*
X124037708Y-172487482D01*
X123912292Y-172559890D01*
X123809890Y-172662292D01*
X123737482Y-172787708D01*
X123726212Y-172829766D01*
X123027340Y-172130894D01*
X122967084Y-172213830D01*
X122859897Y-172424197D01*
X122786934Y-172648752D01*
X122750000Y-172881947D01*
X119250000Y-172881947D01*
X119213065Y-172648752D01*
X119140102Y-172424197D01*
X119032914Y-172213828D01*
X118972658Y-172130894D01*
X118972658Y-172130893D01*
X118273787Y-172829765D01*
X118262518Y-172787708D01*
X118190110Y-172662292D01*
X118087708Y-172559890D01*
X117962292Y-172487482D01*
X117920234Y-172476212D01*
X118619105Y-171777340D01*
X118619104Y-171777339D01*
X118536174Y-171717087D01*
X118325802Y-171609897D01*
X118101247Y-171536934D01*
X118101248Y-171536934D01*
X117868052Y-171500000D01*
X117631948Y-171500000D01*
X117398752Y-171536934D01*
X117174197Y-171609897D01*
X116963830Y-171717084D01*
X116880894Y-171777340D01*
X117579766Y-172476212D01*
X117537708Y-172487482D01*
X117412292Y-172559890D01*
X117309890Y-172662292D01*
X117237482Y-172787708D01*
X117226212Y-172829766D01*
X116527340Y-172130894D01*
X116467084Y-172213830D01*
X116359897Y-172424197D01*
X116286934Y-172648752D01*
X116250000Y-172881947D01*
X107450000Y-172881947D01*
X107450000Y-172831947D01*
X107413065Y-172598752D01*
X107340102Y-172374197D01*
X107232914Y-172163828D01*
X107172658Y-172080894D01*
X107172658Y-172080893D01*
X106473787Y-172779765D01*
X106462518Y-172737708D01*
X106390110Y-172612292D01*
X106287708Y-172509890D01*
X106162292Y-172437482D01*
X106120234Y-172426212D01*
X106809528Y-171736918D01*
X106819105Y-171727340D01*
X106819104Y-171727338D01*
X106736174Y-171667087D01*
X106525802Y-171559897D01*
X106301247Y-171486934D01*
X106301248Y-171486934D01*
X106068052Y-171450000D01*
X105831948Y-171450000D01*
X105598752Y-171486934D01*
X105374197Y-171559897D01*
X105163830Y-171667084D01*
X105080894Y-171727340D01*
X105779766Y-172426212D01*
X105737708Y-172437482D01*
X105612292Y-172509890D01*
X105509890Y-172612292D01*
X105437482Y-172737708D01*
X105426212Y-172779766D01*
X104727340Y-172080894D01*
X104667084Y-172163830D01*
X104559897Y-172374197D01*
X104486934Y-172598752D01*
X104450000Y-172831947D01*
X100950000Y-172831947D01*
X100913065Y-172598752D01*
X100840102Y-172374197D01*
X100732914Y-172163828D01*
X100672658Y-172080894D01*
X100672658Y-172080893D01*
X99973787Y-172779765D01*
X99962518Y-172737708D01*
X99890110Y-172612292D01*
X99787708Y-172509890D01*
X99662292Y-172437482D01*
X99620234Y-172426212D01*
X100319105Y-171727340D01*
X100319104Y-171727339D01*
X100236174Y-171667087D01*
X100025802Y-171559897D01*
X99801247Y-171486934D01*
X99801248Y-171486934D01*
X99568052Y-171450000D01*
X99331948Y-171450000D01*
X99098752Y-171486934D01*
X98874197Y-171559897D01*
X98663830Y-171667084D01*
X98580894Y-171727340D01*
X99279766Y-172426212D01*
X99237708Y-172437482D01*
X99112292Y-172509890D01*
X99009890Y-172612292D01*
X98937482Y-172737708D01*
X98926212Y-172779766D01*
X98227340Y-172080894D01*
X98167084Y-172163830D01*
X98059897Y-172374197D01*
X97986934Y-172598752D01*
X97950000Y-172831947D01*
X88860710Y-172831947D01*
X88848163Y-168331272D01*
X97941500Y-168331272D01*
X97941500Y-168568727D01*
X97978643Y-168803241D01*
X98052019Y-169029067D01*
X98159815Y-169240627D01*
X98299380Y-169432722D01*
X98467278Y-169600620D01*
X98659373Y-169740185D01*
X98757502Y-169790184D01*
X98870932Y-169847980D01*
X98870934Y-169847980D01*
X98870937Y-169847982D01*
X98991984Y-169887312D01*
X99096758Y-169921356D01*
X99331273Y-169958500D01*
X99331278Y-169958500D01*
X99568727Y-169958500D01*
X99803241Y-169921356D01*
X100029063Y-169847982D01*
X100240627Y-169740185D01*
X100432722Y-169600620D01*
X100600620Y-169432722D01*
X100740185Y-169240627D01*
X100847982Y-169029063D01*
X100921356Y-168803241D01*
X100958500Y-168568727D01*
X100958500Y-168331272D01*
X104441500Y-168331272D01*
X104441500Y-168568727D01*
X104478643Y-168803241D01*
X104552019Y-169029067D01*
X104659815Y-169240627D01*
X104799380Y-169432722D01*
X104967278Y-169600620D01*
X105159373Y-169740185D01*
X105257502Y-169790184D01*
X105370932Y-169847980D01*
X105370934Y-169847980D01*
X105370937Y-169847982D01*
X105491984Y-169887312D01*
X105596758Y-169921356D01*
X105831273Y-169958500D01*
X105831278Y-169958500D01*
X106068727Y-169958500D01*
X106303241Y-169921356D01*
X106529063Y-169847982D01*
X106740627Y-169740185D01*
X106932722Y-169600620D01*
X107100620Y-169432722D01*
X107240185Y-169240627D01*
X107347982Y-169029063D01*
X107421356Y-168803241D01*
X107458500Y-168568727D01*
X107458500Y-168381272D01*
X116241500Y-168381272D01*
X116241500Y-168618727D01*
X116278643Y-168853241D01*
X116352019Y-169079067D01*
X116434339Y-169240627D01*
X116459815Y-169290627D01*
X116599380Y-169482722D01*
X116767278Y-169650620D01*
X116959373Y-169790185D01*
X117059328Y-169841114D01*
X117170932Y-169897980D01*
X117170934Y-169897980D01*
X117170937Y-169897982D01*
X117242875Y-169921356D01*
X117396758Y-169971356D01*
X117631273Y-170008500D01*
X117631278Y-170008500D01*
X117868727Y-170008500D01*
X118103241Y-169971356D01*
X118329063Y-169897982D01*
X118540627Y-169790185D01*
X118732722Y-169650620D01*
X118900620Y-169482722D01*
X119040185Y-169290627D01*
X119147982Y-169079063D01*
X119221356Y-168853241D01*
X119229275Y-168803241D01*
X119258500Y-168618727D01*
X119258500Y-168381272D01*
X122741500Y-168381272D01*
X122741500Y-168618727D01*
X122778643Y-168853241D01*
X122852019Y-169079067D01*
X122934339Y-169240627D01*
X122959815Y-169290627D01*
X123099380Y-169482722D01*
X123267278Y-169650620D01*
X123459373Y-169790185D01*
X123559328Y-169841114D01*
X123670932Y-169897980D01*
X123670934Y-169897980D01*
X123670937Y-169897982D01*
X123742875Y-169921356D01*
X123896758Y-169971356D01*
X124131273Y-170008500D01*
X124131278Y-170008500D01*
X124368727Y-170008500D01*
X124603241Y-169971356D01*
X124829063Y-169897982D01*
X125040627Y-169790185D01*
X125232722Y-169650620D01*
X125400620Y-169482722D01*
X125540185Y-169290627D01*
X125647982Y-169079063D01*
X125721356Y-168853241D01*
X125729275Y-168803241D01*
X125758500Y-168618727D01*
X125758500Y-168381272D01*
X125721356Y-168146758D01*
X125684173Y-168032321D01*
X125647982Y-167920937D01*
X125647980Y-167920934D01*
X125647980Y-167920932D01*
X125575154Y-167778004D01*
X125540185Y-167709373D01*
X125400620Y-167517278D01*
X125232722Y-167349380D01*
X125040627Y-167209815D01*
X124830267Y-167102631D01*
X124830266Y-167102630D01*
X124830265Y-167102630D01*
X124829069Y-167102020D01*
X124603241Y-167028643D01*
X124403573Y-166997019D01*
X131766500Y-166997019D01*
X131766500Y-167202981D01*
X131770905Y-167230794D01*
X131798719Y-167406408D01*
X131862367Y-167602294D01*
X131891451Y-167659373D01*
X131951897Y-167778004D01*
X131955873Y-167785806D01*
X132076926Y-167952423D01*
X132076930Y-167952428D01*
X132222571Y-168098069D01*
X132222576Y-168098073D01*
X132347699Y-168188979D01*
X132389197Y-168219129D01*
X132506128Y-168278709D01*
X132572705Y-168312632D01*
X132572707Y-168312632D01*
X132572710Y-168312634D01*
X132677707Y-168346749D01*
X132768591Y-168376280D01*
X132870305Y-168392390D01*
X132972019Y-168408500D01*
X132972020Y-168408500D01*
X133177980Y-168408500D01*
X133177981Y-168408500D01*
X133381408Y-168376280D01*
X133577290Y-168312634D01*
X133760803Y-168219129D01*
X133927430Y-168098068D01*
X134073068Y-167952430D01*
X134194129Y-167785803D01*
X134287634Y-167602290D01*
X134351280Y-167406408D01*
X134383500Y-167202981D01*
X134383500Y-166997019D01*
X141926500Y-166997019D01*
X141926500Y-167202981D01*
X141930905Y-167230794D01*
X141958719Y-167406408D01*
X142022367Y-167602294D01*
X142051451Y-167659373D01*
X142111897Y-167778004D01*
X142115873Y-167785806D01*
X142236926Y-167952423D01*
X142236930Y-167952428D01*
X142382571Y-168098069D01*
X142382576Y-168098073D01*
X142507699Y-168188979D01*
X142549197Y-168219129D01*
X142666128Y-168278709D01*
X142732705Y-168312632D01*
X142732707Y-168312632D01*
X142732710Y-168312634D01*
X142837707Y-168346749D01*
X142928591Y-168376280D01*
X143030305Y-168392390D01*
X143132019Y-168408500D01*
X143132020Y-168408500D01*
X143337980Y-168408500D01*
X143337981Y-168408500D01*
X143541408Y-168376280D01*
X143737290Y-168312634D01*
X143775113Y-168293362D01*
X175991500Y-168293362D01*
X175991500Y-168556637D01*
X175991501Y-168556653D01*
X176025865Y-168817678D01*
X176094009Y-169071995D01*
X176194761Y-169315234D01*
X176194769Y-169315250D01*
X176326409Y-169543256D01*
X176486687Y-169752136D01*
X176486693Y-169752143D01*
X176672856Y-169938306D01*
X176672863Y-169938312D01*
X176881743Y-170098590D01*
X177109749Y-170230230D01*
X177109765Y-170230238D01*
X177261451Y-170293068D01*
X177353003Y-170330990D01*
X177607320Y-170399134D01*
X177868356Y-170433500D01*
X177868363Y-170433500D01*
X178131637Y-170433500D01*
X178131644Y-170433500D01*
X178392680Y-170399134D01*
X178646997Y-170330990D01*
X178830099Y-170255146D01*
X178890234Y-170230238D01*
X178890237Y-170230236D01*
X178890243Y-170230234D01*
X179118257Y-170098590D01*
X179327138Y-169938311D01*
X179513311Y-169752138D01*
X179673590Y-169543257D01*
X179805234Y-169315243D01*
X179905990Y-169071997D01*
X179974134Y-168817680D01*
X180008500Y-168556644D01*
X180008500Y-168293356D01*
X179974134Y-168032320D01*
X179905990Y-167778003D01*
X179833209Y-167602294D01*
X179805238Y-167534765D01*
X179805230Y-167534749D01*
X179673590Y-167306743D01*
X179513312Y-167097863D01*
X179513306Y-167097856D01*
X179327143Y-166911693D01*
X179327136Y-166911687D01*
X179118256Y-166751409D01*
X178890250Y-166619769D01*
X178890234Y-166619761D01*
X178646995Y-166519009D01*
X178392678Y-166450865D01*
X178131653Y-166416501D01*
X178131650Y-166416500D01*
X178131644Y-166416500D01*
X177868356Y-166416500D01*
X177868350Y-166416500D01*
X177868346Y-166416501D01*
X177607321Y-166450865D01*
X177353004Y-166519009D01*
X177109765Y-166619761D01*
X177109749Y-166619769D01*
X176881743Y-166751409D01*
X176672863Y-166911687D01*
X176672856Y-166911693D01*
X176486693Y-167097856D01*
X176486687Y-167097863D01*
X176326409Y-167306743D01*
X176194769Y-167534749D01*
X176194761Y-167534765D01*
X176094009Y-167778004D01*
X176025865Y-168032321D01*
X175991501Y-168293346D01*
X175991500Y-168293362D01*
X143775113Y-168293362D01*
X143920803Y-168219129D01*
X143944140Y-168202173D01*
X143962302Y-168188979D01*
X144087424Y-168098073D01*
X144087426Y-168098070D01*
X144087430Y-168098068D01*
X144233068Y-167952430D01*
X144354129Y-167785803D01*
X144447634Y-167602290D01*
X144511280Y-167406408D01*
X144543500Y-167202981D01*
X144543500Y-166997019D01*
X144540590Y-166978644D01*
X144511280Y-166793591D01*
X144447632Y-166597705D01*
X144407534Y-166519009D01*
X144354129Y-166414197D01*
X144338661Y-166392908D01*
X144233073Y-166247576D01*
X144233069Y-166247571D01*
X144087428Y-166101930D01*
X144087423Y-166101926D01*
X143920806Y-165980873D01*
X143920805Y-165980872D01*
X143920803Y-165980871D01*
X143863496Y-165951671D01*
X143737294Y-165887367D01*
X143541408Y-165823719D01*
X143365794Y-165795905D01*
X143337981Y-165791500D01*
X143132019Y-165791500D01*
X143107550Y-165795375D01*
X142928591Y-165823719D01*
X142732705Y-165887367D01*
X142549193Y-165980873D01*
X142382576Y-166101926D01*
X142382571Y-166101930D01*
X142236930Y-166247571D01*
X142236926Y-166247576D01*
X142115873Y-166414193D01*
X142022367Y-166597705D01*
X141958719Y-166793591D01*
X141929410Y-166978644D01*
X141926500Y-166997019D01*
X134383500Y-166997019D01*
X134380590Y-166978644D01*
X134351280Y-166793591D01*
X134287632Y-166597705D01*
X134247534Y-166519009D01*
X134194129Y-166414197D01*
X134178661Y-166392908D01*
X134073073Y-166247576D01*
X134073069Y-166247571D01*
X133927428Y-166101930D01*
X133927423Y-166101926D01*
X133760806Y-165980873D01*
X133760805Y-165980872D01*
X133760803Y-165980871D01*
X133703496Y-165951671D01*
X133577294Y-165887367D01*
X133381408Y-165823719D01*
X133205794Y-165795905D01*
X133177981Y-165791500D01*
X132972019Y-165791500D01*
X132947550Y-165795375D01*
X132768591Y-165823719D01*
X132572705Y-165887367D01*
X132389193Y-165980873D01*
X132222576Y-166101926D01*
X132222571Y-166101930D01*
X132076930Y-166247571D01*
X132076926Y-166247576D01*
X131955873Y-166414193D01*
X131862367Y-166597705D01*
X131798719Y-166793591D01*
X131769410Y-166978644D01*
X131766500Y-166997019D01*
X124403573Y-166997019D01*
X124368727Y-166991500D01*
X124368722Y-166991500D01*
X124131278Y-166991500D01*
X124131273Y-166991500D01*
X123896758Y-167028643D01*
X123670932Y-167102019D01*
X123459372Y-167209815D01*
X123267275Y-167349382D01*
X123099382Y-167517275D01*
X122959815Y-167709372D01*
X122852019Y-167920932D01*
X122778643Y-168146758D01*
X122741500Y-168381272D01*
X119258500Y-168381272D01*
X119221356Y-168146758D01*
X119184173Y-168032321D01*
X119147982Y-167920937D01*
X119147980Y-167920934D01*
X119147980Y-167920932D01*
X119075154Y-167778004D01*
X119040185Y-167709373D01*
X118900620Y-167517278D01*
X118732722Y-167349380D01*
X118540627Y-167209815D01*
X118329067Y-167102019D01*
X118103241Y-167028643D01*
X117868727Y-166991500D01*
X117868722Y-166991500D01*
X117631278Y-166991500D01*
X117631273Y-166991500D01*
X117396758Y-167028643D01*
X117170932Y-167102019D01*
X116959372Y-167209815D01*
X116767275Y-167349382D01*
X116599382Y-167517275D01*
X116459815Y-167709372D01*
X116352019Y-167920932D01*
X116278643Y-168146758D01*
X116241500Y-168381272D01*
X107458500Y-168381272D01*
X107458500Y-168331272D01*
X107421356Y-168096758D01*
X107347980Y-167870932D01*
X107265661Y-167709373D01*
X107240185Y-167659373D01*
X107100620Y-167467278D01*
X106932722Y-167299380D01*
X106740627Y-167159815D01*
X106529067Y-167052019D01*
X106303241Y-166978643D01*
X106068727Y-166941500D01*
X106068722Y-166941500D01*
X105831278Y-166941500D01*
X105831273Y-166941500D01*
X105596758Y-166978643D01*
X105370932Y-167052019D01*
X105159372Y-167159815D01*
X104967275Y-167299382D01*
X104799382Y-167467275D01*
X104659815Y-167659372D01*
X104552019Y-167870932D01*
X104478643Y-168096758D01*
X104441500Y-168331272D01*
X100958500Y-168331272D01*
X100921356Y-168096758D01*
X100847980Y-167870932D01*
X100765661Y-167709373D01*
X100740185Y-167659373D01*
X100600620Y-167467278D01*
X100432722Y-167299380D01*
X100240627Y-167159815D01*
X100029067Y-167052019D01*
X99803241Y-166978643D01*
X99568727Y-166941500D01*
X99568722Y-166941500D01*
X99331278Y-166941500D01*
X99331273Y-166941500D01*
X99096758Y-166978643D01*
X98870932Y-167052019D01*
X98659372Y-167159815D01*
X98467275Y-167299382D01*
X98299382Y-167467275D01*
X98159815Y-167659372D01*
X98052019Y-167870932D01*
X97978643Y-168096758D01*
X97941500Y-168331272D01*
X88848163Y-168331272D01*
X88845426Y-167349382D01*
X88838758Y-164957311D01*
X88834120Y-163293905D01*
X176000000Y-163293905D01*
X176000000Y-163556094D01*
X176034220Y-163816009D01*
X176034222Y-163816020D01*
X176102075Y-164069255D01*
X176202404Y-164311471D01*
X176202409Y-164311482D01*
X176333488Y-164538516D01*
X176333494Y-164538524D01*
X176420080Y-164651365D01*
X177435387Y-163636058D01*
X177440889Y-163656591D01*
X177519881Y-163793408D01*
X177631592Y-163905119D01*
X177768409Y-163984111D01*
X177788940Y-163989612D01*
X176773633Y-165004917D01*
X176773633Y-165004918D01*
X176886475Y-165091505D01*
X176886483Y-165091511D01*
X177113517Y-165222590D01*
X177113528Y-165222595D01*
X177355744Y-165322924D01*
X177608979Y-165390777D01*
X177608990Y-165390779D01*
X177868905Y-165424999D01*
X177868920Y-165425000D01*
X178131080Y-165425000D01*
X178131094Y-165424999D01*
X178391009Y-165390779D01*
X178391020Y-165390777D01*
X178644255Y-165322924D01*
X178886471Y-165222595D01*
X178886482Y-165222590D01*
X179113516Y-165091511D01*
X179113534Y-165091499D01*
X179226365Y-165004919D01*
X179226365Y-165004917D01*
X178211059Y-163989612D01*
X178231591Y-163984111D01*
X178368408Y-163905119D01*
X178480119Y-163793408D01*
X178559111Y-163656591D01*
X178564612Y-163636060D01*
X179579917Y-164651365D01*
X179579919Y-164651365D01*
X179666499Y-164538534D01*
X179666511Y-164538516D01*
X179797590Y-164311482D01*
X179797595Y-164311471D01*
X179897924Y-164069255D01*
X179965777Y-163816020D01*
X179965779Y-163816009D01*
X179999999Y-163556094D01*
X180000000Y-163556080D01*
X180000000Y-163293919D01*
X179999999Y-163293905D01*
X179965779Y-163033990D01*
X179965777Y-163033979D01*
X179897924Y-162780744D01*
X179797595Y-162538528D01*
X179797590Y-162538517D01*
X179666511Y-162311483D01*
X179666505Y-162311475D01*
X179579918Y-162198633D01*
X179579917Y-162198633D01*
X178564612Y-163213939D01*
X178559111Y-163193409D01*
X178480119Y-163056592D01*
X178368408Y-162944881D01*
X178231591Y-162865889D01*
X178211057Y-162860387D01*
X179226365Y-161845080D01*
X179113524Y-161758494D01*
X179113516Y-161758488D01*
X178886482Y-161627409D01*
X178886471Y-161627404D01*
X178644255Y-161527075D01*
X178391020Y-161459222D01*
X178391009Y-161459220D01*
X178131094Y-161425000D01*
X177868905Y-161425000D01*
X177608990Y-161459220D01*
X177608979Y-161459222D01*
X177355744Y-161527075D01*
X177113528Y-161627404D01*
X177113517Y-161627409D01*
X176886471Y-161758496D01*
X176773633Y-161845079D01*
X176773633Y-161845080D01*
X177788940Y-162860387D01*
X177768409Y-162865889D01*
X177631592Y-162944881D01*
X177519881Y-163056592D01*
X177440889Y-163193409D01*
X177435387Y-163213940D01*
X176420080Y-162198633D01*
X176420079Y-162198633D01*
X176333496Y-162311471D01*
X176202409Y-162538517D01*
X176202404Y-162538528D01*
X176102075Y-162780744D01*
X176034222Y-163033979D01*
X176034220Y-163033990D01*
X176000000Y-163293905D01*
X88834120Y-163293905D01*
X88834110Y-163290200D01*
X88830216Y-161893379D01*
X88821735Y-158851345D01*
X115231500Y-158851345D01*
X115231500Y-160648654D01*
X115238011Y-160709202D01*
X115238011Y-160709204D01*
X115289111Y-160846204D01*
X115376739Y-160963261D01*
X115493796Y-161050889D01*
X115630799Y-161101989D01*
X115658050Y-161104918D01*
X115691345Y-161108499D01*
X115691362Y-161108500D01*
X117488638Y-161108500D01*
X117488654Y-161108499D01*
X117515692Y-161105591D01*
X117549201Y-161101989D01*
X117686204Y-161050889D01*
X117803261Y-160963261D01*
X117890889Y-160846204D01*
X117935957Y-160725371D01*
X117977827Y-160669442D01*
X118043291Y-160645025D01*
X118111564Y-160659877D01*
X118139818Y-160681028D01*
X118244996Y-160786206D01*
X118417991Y-160911894D01*
X118511438Y-160959507D01*
X118608516Y-161008972D01*
X118608519Y-161008973D01*
X118710200Y-161042010D01*
X118811884Y-161075049D01*
X119023084Y-161108500D01*
X119023085Y-161108500D01*
X119236915Y-161108500D01*
X119236916Y-161108500D01*
X119448116Y-161075049D01*
X119651483Y-161008972D01*
X119842009Y-160911894D01*
X120015004Y-160786206D01*
X120166206Y-160635004D01*
X120291894Y-160462009D01*
X120291896Y-160462004D01*
X120294270Y-160458132D01*
X120346080Y-160411254D01*
X120415009Y-160399829D01*
X120479173Y-160427483D01*
X120505730Y-160458132D01*
X120508103Y-160462005D01*
X120508105Y-160462008D01*
X120508106Y-160462009D01*
X120633794Y-160635004D01*
X120784996Y-160786206D01*
X120957991Y-160911894D01*
X121051438Y-160959507D01*
X121148516Y-161008972D01*
X121148519Y-161008973D01*
X121250200Y-161042010D01*
X121351884Y-161075049D01*
X121563084Y-161108500D01*
X121563085Y-161108500D01*
X121776915Y-161108500D01*
X121776916Y-161108500D01*
X121988116Y-161075049D01*
X122191483Y-161008972D01*
X122382009Y-160911894D01*
X122555004Y-160786206D01*
X122706206Y-160635004D01*
X122831894Y-160462009D01*
X122834283Y-160457319D01*
X122882254Y-160406522D01*
X122950074Y-160389724D01*
X123016210Y-160412258D01*
X123052196Y-160453783D01*
X123052829Y-160453396D01*
X123055167Y-160457211D01*
X123055251Y-160457308D01*
X123055371Y-160457545D01*
X123055373Y-160457547D01*
X123094728Y-160511716D01*
X123727037Y-159879408D01*
X123744075Y-159942993D01*
X123809901Y-160057007D01*
X123902993Y-160150099D01*
X124017007Y-160215925D01*
X124080590Y-160232962D01*
X123448282Y-160865269D01*
X123448282Y-160865270D01*
X123502449Y-160904624D01*
X123691782Y-161001095D01*
X123893870Y-161066757D01*
X124103754Y-161100000D01*
X124316246Y-161100000D01*
X124526127Y-161066757D01*
X124526130Y-161066757D01*
X124728217Y-161001095D01*
X124917554Y-160904622D01*
X124971716Y-160865270D01*
X124971717Y-160865270D01*
X124339408Y-160232962D01*
X124402993Y-160215925D01*
X124517007Y-160150099D01*
X124610099Y-160057007D01*
X124675925Y-159942993D01*
X124692962Y-159879408D01*
X125325270Y-160511717D01*
X125325270Y-160511716D01*
X125364621Y-160457556D01*
X125364738Y-160457327D01*
X125364808Y-160457252D01*
X125367168Y-160453402D01*
X125367976Y-160453897D01*
X125412707Y-160406526D01*
X125480526Y-160389723D01*
X125546663Y-160412254D01*
X125585712Y-160457311D01*
X125588105Y-160462008D01*
X125624220Y-160511716D01*
X125713794Y-160635004D01*
X125864996Y-160786206D01*
X126037991Y-160911894D01*
X126131438Y-160959507D01*
X126228516Y-161008972D01*
X126228519Y-161008973D01*
X126330200Y-161042010D01*
X126431884Y-161075049D01*
X126643084Y-161108500D01*
X126643085Y-161108500D01*
X126856915Y-161108500D01*
X126856916Y-161108500D01*
X127068116Y-161075049D01*
X127271483Y-161008972D01*
X127462009Y-160911894D01*
X127635004Y-160786206D01*
X127786206Y-160635004D01*
X127911894Y-160462009D01*
X127911896Y-160462004D01*
X127914270Y-160458132D01*
X127966080Y-160411254D01*
X128035009Y-160399829D01*
X128099173Y-160427483D01*
X128125730Y-160458132D01*
X128128103Y-160462005D01*
X128128105Y-160462008D01*
X128128106Y-160462009D01*
X128253794Y-160635004D01*
X128404996Y-160786206D01*
X128577991Y-160911894D01*
X128671438Y-160959507D01*
X128768516Y-161008972D01*
X128768519Y-161008973D01*
X128870200Y-161042010D01*
X128971884Y-161075049D01*
X129183084Y-161108500D01*
X129183085Y-161108500D01*
X129396915Y-161108500D01*
X129396916Y-161108500D01*
X129608116Y-161075049D01*
X129811483Y-161008972D01*
X130002009Y-160911894D01*
X130175004Y-160786206D01*
X130326206Y-160635004D01*
X130451894Y-160462009D01*
X130451896Y-160462004D01*
X130454270Y-160458132D01*
X130506080Y-160411254D01*
X130575009Y-160399829D01*
X130639173Y-160427483D01*
X130665730Y-160458132D01*
X130668103Y-160462005D01*
X130668105Y-160462008D01*
X130668106Y-160462009D01*
X130793794Y-160635004D01*
X130944996Y-160786206D01*
X131117991Y-160911894D01*
X131211438Y-160959507D01*
X131308516Y-161008972D01*
X131308519Y-161008973D01*
X131410200Y-161042010D01*
X131511884Y-161075049D01*
X131723084Y-161108500D01*
X131723085Y-161108500D01*
X131936915Y-161108500D01*
X131936916Y-161108500D01*
X132148116Y-161075049D01*
X132351483Y-161008972D01*
X132542009Y-160911894D01*
X132715004Y-160786206D01*
X132866206Y-160635004D01*
X132991894Y-160462009D01*
X132991896Y-160462004D01*
X132994270Y-160458132D01*
X133046080Y-160411254D01*
X133115009Y-160399829D01*
X133179173Y-160427483D01*
X133205730Y-160458132D01*
X133208103Y-160462005D01*
X133208105Y-160462008D01*
X133208106Y-160462009D01*
X133333794Y-160635004D01*
X133484996Y-160786206D01*
X133657991Y-160911894D01*
X133751438Y-160959507D01*
X133848516Y-161008972D01*
X133848519Y-161008973D01*
X133950200Y-161042010D01*
X134051884Y-161075049D01*
X134263084Y-161108500D01*
X134263085Y-161108500D01*
X134476915Y-161108500D01*
X134476916Y-161108500D01*
X134688116Y-161075049D01*
X134891483Y-161008972D01*
X135082009Y-160911894D01*
X135255004Y-160786206D01*
X135406206Y-160635004D01*
X135531894Y-160462009D01*
X135531896Y-160462004D01*
X135534270Y-160458132D01*
X135586080Y-160411254D01*
X135655009Y-160399829D01*
X135719173Y-160427483D01*
X135745730Y-160458132D01*
X135748103Y-160462005D01*
X135748105Y-160462008D01*
X135748106Y-160462009D01*
X135873794Y-160635004D01*
X136024996Y-160786206D01*
X136197991Y-160911894D01*
X136291438Y-160959507D01*
X136388516Y-161008972D01*
X136388519Y-161008973D01*
X136490200Y-161042010D01*
X136591884Y-161075049D01*
X136803084Y-161108500D01*
X136803085Y-161108500D01*
X137016915Y-161108500D01*
X137016916Y-161108500D01*
X137228116Y-161075049D01*
X137431483Y-161008972D01*
X137622009Y-160911894D01*
X137795004Y-160786206D01*
X137946206Y-160635004D01*
X138071894Y-160462009D01*
X138071896Y-160462004D01*
X138074270Y-160458132D01*
X138126080Y-160411254D01*
X138195009Y-160399829D01*
X138259173Y-160427483D01*
X138285730Y-160458132D01*
X138288103Y-160462005D01*
X138288105Y-160462008D01*
X138288106Y-160462009D01*
X138413794Y-160635004D01*
X138564996Y-160786206D01*
X138737991Y-160911894D01*
X138831438Y-160959507D01*
X138928516Y-161008972D01*
X138928519Y-161008973D01*
X139030200Y-161042010D01*
X139131884Y-161075049D01*
X139343084Y-161108500D01*
X139343085Y-161108500D01*
X139556915Y-161108500D01*
X139556916Y-161108500D01*
X139768116Y-161075049D01*
X139971483Y-161008972D01*
X140162009Y-160911894D01*
X140335004Y-160786206D01*
X140486206Y-160635004D01*
X140611894Y-160462009D01*
X140708972Y-160271483D01*
X140775049Y-160068116D01*
X140808500Y-159856916D01*
X140808500Y-159643084D01*
X140775049Y-159431884D01*
X140708972Y-159228517D01*
X140708972Y-159228516D01*
X140675354Y-159162539D01*
X140611894Y-159037991D01*
X140486206Y-158864996D01*
X140472555Y-158851345D01*
X142136500Y-158851345D01*
X142136500Y-160648654D01*
X142143011Y-160709202D01*
X142143011Y-160709204D01*
X142194111Y-160846204D01*
X142281739Y-160963261D01*
X142398796Y-161050889D01*
X142535799Y-161101989D01*
X142563050Y-161104918D01*
X142596345Y-161108499D01*
X142596362Y-161108500D01*
X144393638Y-161108500D01*
X144393654Y-161108499D01*
X144420692Y-161105591D01*
X144454201Y-161101989D01*
X144591204Y-161050889D01*
X144708261Y-160963261D01*
X144795889Y-160846204D01*
X144840957Y-160725371D01*
X144882827Y-160669442D01*
X144948291Y-160645025D01*
X145016564Y-160659877D01*
X145044818Y-160681028D01*
X145149996Y-160786206D01*
X145322991Y-160911894D01*
X145416438Y-160959507D01*
X145513516Y-161008972D01*
X145513519Y-161008973D01*
X145615200Y-161042010D01*
X145716884Y-161075049D01*
X145928084Y-161108500D01*
X145928085Y-161108500D01*
X146141915Y-161108500D01*
X146141916Y-161108500D01*
X146353116Y-161075049D01*
X146556483Y-161008972D01*
X146747009Y-160911894D01*
X146920004Y-160786206D01*
X147071206Y-160635004D01*
X147196894Y-160462009D01*
X147196896Y-160462004D01*
X147199270Y-160458132D01*
X147251080Y-160411254D01*
X147320009Y-160399829D01*
X147384173Y-160427483D01*
X147410730Y-160458132D01*
X147413103Y-160462005D01*
X147413105Y-160462008D01*
X147413106Y-160462009D01*
X147538794Y-160635004D01*
X147689996Y-160786206D01*
X147862991Y-160911894D01*
X147956438Y-160959507D01*
X148053516Y-161008972D01*
X148053519Y-161008973D01*
X148155200Y-161042010D01*
X148256884Y-161075049D01*
X148468084Y-161108500D01*
X148468085Y-161108500D01*
X148681915Y-161108500D01*
X148681916Y-161108500D01*
X148893116Y-161075049D01*
X149096483Y-161008972D01*
X149287009Y-160911894D01*
X149460004Y-160786206D01*
X149611206Y-160635004D01*
X149736894Y-160462009D01*
X149736896Y-160462004D01*
X149739270Y-160458132D01*
X149791080Y-160411254D01*
X149860009Y-160399829D01*
X149924173Y-160427483D01*
X149950730Y-160458132D01*
X149953103Y-160462005D01*
X149953105Y-160462008D01*
X149953106Y-160462009D01*
X150078794Y-160635004D01*
X150229996Y-160786206D01*
X150402991Y-160911894D01*
X150496438Y-160959507D01*
X150593516Y-161008972D01*
X150593519Y-161008973D01*
X150695200Y-161042010D01*
X150796884Y-161075049D01*
X151008084Y-161108500D01*
X151008085Y-161108500D01*
X151221915Y-161108500D01*
X151221916Y-161108500D01*
X151433116Y-161075049D01*
X151636483Y-161008972D01*
X151827009Y-160911894D01*
X152000004Y-160786206D01*
X152151206Y-160635004D01*
X152276894Y-160462009D01*
X152276896Y-160462004D01*
X152279270Y-160458132D01*
X152331080Y-160411254D01*
X152400009Y-160399829D01*
X152464173Y-160427483D01*
X152490730Y-160458132D01*
X152493103Y-160462005D01*
X152493105Y-160462008D01*
X152493106Y-160462009D01*
X152618794Y-160635004D01*
X152769996Y-160786206D01*
X152942991Y-160911894D01*
X153036438Y-160959507D01*
X153133516Y-161008972D01*
X153133519Y-161008973D01*
X153235200Y-161042010D01*
X153336884Y-161075049D01*
X153548084Y-161108500D01*
X153548085Y-161108500D01*
X153761915Y-161108500D01*
X153761916Y-161108500D01*
X153973116Y-161075049D01*
X154176483Y-161008972D01*
X154367009Y-160911894D01*
X154540004Y-160786206D01*
X154691206Y-160635004D01*
X154816894Y-160462009D01*
X154816896Y-160462004D01*
X154819270Y-160458132D01*
X154871080Y-160411254D01*
X154940009Y-160399829D01*
X155004173Y-160427483D01*
X155030730Y-160458132D01*
X155033103Y-160462005D01*
X155033105Y-160462008D01*
X155033106Y-160462009D01*
X155158794Y-160635004D01*
X155309996Y-160786206D01*
X155482991Y-160911894D01*
X155576438Y-160959507D01*
X155673516Y-161008972D01*
X155673519Y-161008973D01*
X155775200Y-161042010D01*
X155876884Y-161075049D01*
X156088084Y-161108500D01*
X156088085Y-161108500D01*
X156301915Y-161108500D01*
X156301916Y-161108500D01*
X156513116Y-161075049D01*
X156716483Y-161008972D01*
X156907009Y-160911894D01*
X157080004Y-160786206D01*
X157231206Y-160635004D01*
X157356894Y-160462009D01*
X157356896Y-160462004D01*
X157359270Y-160458132D01*
X157411080Y-160411254D01*
X157480009Y-160399829D01*
X157544173Y-160427483D01*
X157570730Y-160458132D01*
X157573103Y-160462005D01*
X157573105Y-160462008D01*
X157573106Y-160462009D01*
X157698794Y-160635004D01*
X157849996Y-160786206D01*
X158022991Y-160911894D01*
X158116438Y-160959507D01*
X158213516Y-161008972D01*
X158213519Y-161008973D01*
X158315200Y-161042010D01*
X158416884Y-161075049D01*
X158628084Y-161108500D01*
X158628085Y-161108500D01*
X158841915Y-161108500D01*
X158841916Y-161108500D01*
X159053116Y-161075049D01*
X159256483Y-161008972D01*
X159447009Y-160911894D01*
X159620004Y-160786206D01*
X159771206Y-160635004D01*
X159896894Y-160462009D01*
X159896896Y-160462004D01*
X159899270Y-160458132D01*
X159951080Y-160411254D01*
X160020009Y-160399829D01*
X160084173Y-160427483D01*
X160110730Y-160458132D01*
X160113103Y-160462005D01*
X160113105Y-160462008D01*
X160113106Y-160462009D01*
X160238794Y-160635004D01*
X160389996Y-160786206D01*
X160562991Y-160911894D01*
X160656438Y-160959507D01*
X160753516Y-161008972D01*
X160753519Y-161008973D01*
X160855200Y-161042010D01*
X160956884Y-161075049D01*
X161168084Y-161108500D01*
X161168085Y-161108500D01*
X161381915Y-161108500D01*
X161381916Y-161108500D01*
X161593116Y-161075049D01*
X161796483Y-161008972D01*
X161987009Y-160911894D01*
X162160004Y-160786206D01*
X162311206Y-160635004D01*
X162436894Y-160462009D01*
X162533972Y-160271483D01*
X162600049Y-160068116D01*
X162633500Y-159856916D01*
X162633500Y-159643084D01*
X162600049Y-159431884D01*
X162533972Y-159228517D01*
X162533972Y-159228516D01*
X162484507Y-159131438D01*
X162436894Y-159037991D01*
X162311206Y-158864996D01*
X162160004Y-158713794D01*
X161987009Y-158588106D01*
X161796483Y-158491027D01*
X161796480Y-158491026D01*
X161593117Y-158424951D01*
X161487516Y-158408225D01*
X161381916Y-158391500D01*
X161168084Y-158391500D01*
X161097684Y-158402650D01*
X160956882Y-158424951D01*
X160753519Y-158491026D01*
X160753516Y-158491027D01*
X160562990Y-158588106D01*
X160389993Y-158713796D01*
X160238796Y-158864993D01*
X160113105Y-159037991D01*
X160110727Y-159041873D01*
X160058914Y-159088748D01*
X159989984Y-159100169D01*
X159925822Y-159072512D01*
X159899273Y-159041873D01*
X159896894Y-159037991D01*
X159860778Y-158988282D01*
X159771206Y-158864996D01*
X159620004Y-158713794D01*
X159447009Y-158588106D01*
X159256483Y-158491027D01*
X159256480Y-158491026D01*
X159053117Y-158424951D01*
X158947516Y-158408225D01*
X158841916Y-158391500D01*
X158628084Y-158391500D01*
X158557684Y-158402650D01*
X158416882Y-158424951D01*
X158213519Y-158491026D01*
X158213516Y-158491027D01*
X158022990Y-158588106D01*
X157849993Y-158713796D01*
X157698796Y-158864993D01*
X157573105Y-159037991D01*
X157570727Y-159041873D01*
X157518914Y-159088748D01*
X157449984Y-159100169D01*
X157385822Y-159072512D01*
X157359273Y-159041873D01*
X157356894Y-159037991D01*
X157320778Y-158988282D01*
X157231206Y-158864996D01*
X157080004Y-158713794D01*
X156907009Y-158588106D01*
X156716483Y-158491027D01*
X156716480Y-158491026D01*
X156513117Y-158424951D01*
X156407516Y-158408225D01*
X156301916Y-158391500D01*
X156088084Y-158391500D01*
X156017684Y-158402650D01*
X155876882Y-158424951D01*
X155673519Y-158491026D01*
X155673516Y-158491027D01*
X155482990Y-158588106D01*
X155309993Y-158713796D01*
X155158796Y-158864993D01*
X155033105Y-159037991D01*
X155030727Y-159041873D01*
X154978914Y-159088748D01*
X154909984Y-159100169D01*
X154845822Y-159072512D01*
X154819273Y-159041873D01*
X154816894Y-159037991D01*
X154780778Y-158988282D01*
X154691206Y-158864996D01*
X154540004Y-158713794D01*
X154367009Y-158588106D01*
X154176483Y-158491027D01*
X154176480Y-158491026D01*
X153973117Y-158424951D01*
X153867516Y-158408225D01*
X153761916Y-158391500D01*
X153548084Y-158391500D01*
X153477684Y-158402650D01*
X153336882Y-158424951D01*
X153133519Y-158491026D01*
X153133516Y-158491027D01*
X152942990Y-158588106D01*
X152769993Y-158713796D01*
X152618796Y-158864993D01*
X152493105Y-159037991D01*
X152490727Y-159041873D01*
X152438914Y-159088748D01*
X152369984Y-159100169D01*
X152305822Y-159072512D01*
X152279273Y-159041873D01*
X152276894Y-159037991D01*
X152240778Y-158988282D01*
X152151206Y-158864996D01*
X152000004Y-158713794D01*
X151827009Y-158588106D01*
X151636483Y-158491027D01*
X151636480Y-158491026D01*
X151433117Y-158424951D01*
X151327516Y-158408225D01*
X151221916Y-158391500D01*
X151008084Y-158391500D01*
X150937684Y-158402650D01*
X150796882Y-158424951D01*
X150593519Y-158491026D01*
X150593516Y-158491027D01*
X150402990Y-158588106D01*
X150229993Y-158713796D01*
X150078796Y-158864993D01*
X149953105Y-159037991D01*
X149950727Y-159041873D01*
X149898914Y-159088748D01*
X149829984Y-159100169D01*
X149765822Y-159072512D01*
X149739273Y-159041873D01*
X149736894Y-159037991D01*
X149700778Y-158988282D01*
X149611206Y-158864996D01*
X149460004Y-158713794D01*
X149287009Y-158588106D01*
X149096483Y-158491027D01*
X149096480Y-158491026D01*
X148893117Y-158424951D01*
X148787516Y-158408225D01*
X148681916Y-158391500D01*
X148468084Y-158391500D01*
X148397684Y-158402650D01*
X148256882Y-158424951D01*
X148053519Y-158491026D01*
X148053516Y-158491027D01*
X147862990Y-158588106D01*
X147689993Y-158713796D01*
X147538796Y-158864993D01*
X147413105Y-159037991D01*
X147410727Y-159041873D01*
X147358914Y-159088748D01*
X147289984Y-159100169D01*
X147225822Y-159072512D01*
X147199273Y-159041873D01*
X147196894Y-159037991D01*
X147160778Y-158988282D01*
X147071206Y-158864996D01*
X146920004Y-158713794D01*
X146747009Y-158588106D01*
X146556483Y-158491027D01*
X146556480Y-158491026D01*
X146353117Y-158424951D01*
X146247516Y-158408225D01*
X146141916Y-158391500D01*
X145928084Y-158391500D01*
X145857684Y-158402650D01*
X145716882Y-158424951D01*
X145513519Y-158491026D01*
X145513516Y-158491027D01*
X145322990Y-158588106D01*
X145149997Y-158713793D01*
X145044818Y-158818972D01*
X144983495Y-158852456D01*
X144913803Y-158847472D01*
X144857870Y-158805600D01*
X144840958Y-158774629D01*
X144795889Y-158653796D01*
X144708261Y-158536739D01*
X144591204Y-158449111D01*
X144454203Y-158398011D01*
X144393654Y-158391500D01*
X144393638Y-158391500D01*
X142596362Y-158391500D01*
X142596345Y-158391500D01*
X142535797Y-158398011D01*
X142535795Y-158398011D01*
X142398795Y-158449111D01*
X142281739Y-158536739D01*
X142194111Y-158653795D01*
X142143011Y-158790795D01*
X142143011Y-158790797D01*
X142136500Y-158851345D01*
X140472555Y-158851345D01*
X140335004Y-158713794D01*
X140162009Y-158588106D01*
X139971483Y-158491027D01*
X139971480Y-158491026D01*
X139768117Y-158424951D01*
X139662516Y-158408225D01*
X139556916Y-158391500D01*
X139343084Y-158391500D01*
X139272684Y-158402650D01*
X139131882Y-158424951D01*
X138928519Y-158491026D01*
X138928516Y-158491027D01*
X138737990Y-158588106D01*
X138564993Y-158713796D01*
X138413796Y-158864993D01*
X138288105Y-159037991D01*
X138285727Y-159041873D01*
X138233914Y-159088748D01*
X138164984Y-159100169D01*
X138100822Y-159072512D01*
X138074273Y-159041873D01*
X138071894Y-159037991D01*
X138035778Y-158988282D01*
X137946206Y-158864996D01*
X137795004Y-158713794D01*
X137622009Y-158588106D01*
X137431483Y-158491027D01*
X137431480Y-158491026D01*
X137228117Y-158424951D01*
X137122516Y-158408225D01*
X137016916Y-158391500D01*
X136803084Y-158391500D01*
X136732684Y-158402650D01*
X136591882Y-158424951D01*
X136388519Y-158491026D01*
X136388516Y-158491027D01*
X136197990Y-158588106D01*
X136024993Y-158713796D01*
X135873796Y-158864993D01*
X135748105Y-159037991D01*
X135745727Y-159041873D01*
X135693914Y-159088748D01*
X135624984Y-159100169D01*
X135560822Y-159072512D01*
X135534273Y-159041873D01*
X135531894Y-159037991D01*
X135495778Y-158988282D01*
X135406206Y-158864996D01*
X135255004Y-158713794D01*
X135082009Y-158588106D01*
X134891483Y-158491027D01*
X134891480Y-158491026D01*
X134688117Y-158424951D01*
X134582516Y-158408225D01*
X134476916Y-158391500D01*
X134263084Y-158391500D01*
X134192684Y-158402650D01*
X134051882Y-158424951D01*
X133848519Y-158491026D01*
X133848516Y-158491027D01*
X133657990Y-158588106D01*
X133484993Y-158713796D01*
X133333796Y-158864993D01*
X133208105Y-159037991D01*
X133205727Y-159041873D01*
X133153914Y-159088748D01*
X133084984Y-159100169D01*
X133020822Y-159072512D01*
X132994273Y-159041873D01*
X132991894Y-159037991D01*
X132955778Y-158988282D01*
X132866206Y-158864996D01*
X132715004Y-158713794D01*
X132542009Y-158588106D01*
X132351483Y-158491027D01*
X132351480Y-158491026D01*
X132148117Y-158424951D01*
X132042516Y-158408225D01*
X131936916Y-158391500D01*
X131723084Y-158391500D01*
X131652684Y-158402650D01*
X131511882Y-158424951D01*
X131308519Y-158491026D01*
X131308516Y-158491027D01*
X131117990Y-158588106D01*
X130944993Y-158713796D01*
X130793796Y-158864993D01*
X130668105Y-159037991D01*
X130665727Y-159041873D01*
X130613914Y-159088748D01*
X130544984Y-159100169D01*
X130480822Y-159072512D01*
X130454273Y-159041873D01*
X130451894Y-159037991D01*
X130415778Y-158988282D01*
X130326206Y-158864996D01*
X130175004Y-158713794D01*
X130002009Y-158588106D01*
X129811483Y-158491027D01*
X129811480Y-158491026D01*
X129608117Y-158424951D01*
X129502516Y-158408225D01*
X129396916Y-158391500D01*
X129183084Y-158391500D01*
X129112684Y-158402650D01*
X128971882Y-158424951D01*
X128768519Y-158491026D01*
X128768516Y-158491027D01*
X128577990Y-158588106D01*
X128404993Y-158713796D01*
X128253796Y-158864993D01*
X128128105Y-159037991D01*
X128125727Y-159041873D01*
X128073914Y-159088748D01*
X128004984Y-159100169D01*
X127940822Y-159072512D01*
X127914273Y-159041873D01*
X127911894Y-159037991D01*
X127875778Y-158988282D01*
X127786206Y-158864996D01*
X127635004Y-158713794D01*
X127462009Y-158588106D01*
X127271483Y-158491027D01*
X127271480Y-158491026D01*
X127068117Y-158424951D01*
X126962516Y-158408225D01*
X126856916Y-158391500D01*
X126643084Y-158391500D01*
X126572684Y-158402650D01*
X126431882Y-158424951D01*
X126228519Y-158491026D01*
X126228516Y-158491027D01*
X126037990Y-158588106D01*
X125864993Y-158713796D01*
X125713796Y-158864993D01*
X125588103Y-159037994D01*
X125585709Y-159042693D01*
X125537731Y-159093485D01*
X125469908Y-159110275D01*
X125403775Y-159087732D01*
X125367804Y-159046215D01*
X125367171Y-159046604D01*
X125364826Y-159042778D01*
X125364743Y-159042682D01*
X125364624Y-159042449D01*
X125325270Y-158988282D01*
X125325269Y-158988282D01*
X124692962Y-159620590D01*
X124675925Y-159557007D01*
X124610099Y-159442993D01*
X124517007Y-159349901D01*
X124402993Y-159284075D01*
X124339409Y-159267037D01*
X124971716Y-158634728D01*
X124917550Y-158595375D01*
X124728217Y-158498904D01*
X124526129Y-158433242D01*
X124316246Y-158400000D01*
X124103754Y-158400000D01*
X123893872Y-158433242D01*
X123893869Y-158433242D01*
X123691782Y-158498904D01*
X123502439Y-158595380D01*
X123448282Y-158634727D01*
X123448282Y-158634728D01*
X124080591Y-159267037D01*
X124017007Y-159284075D01*
X123902993Y-159349901D01*
X123809901Y-159442993D01*
X123744075Y-159557007D01*
X123727037Y-159620591D01*
X123094728Y-158988282D01*
X123094727Y-158988282D01*
X123055380Y-159042440D01*
X123055374Y-159042449D01*
X123055246Y-159042702D01*
X123055172Y-159042780D01*
X123052838Y-159046590D01*
X123052036Y-159046099D01*
X123007264Y-159093490D01*
X122939441Y-159110275D01*
X122873309Y-159087728D01*
X122834283Y-159042680D01*
X122831894Y-159037991D01*
X122706206Y-158864996D01*
X122555004Y-158713794D01*
X122382009Y-158588106D01*
X122191483Y-158491027D01*
X122191480Y-158491026D01*
X121988117Y-158424951D01*
X121882516Y-158408225D01*
X121776916Y-158391500D01*
X121563084Y-158391500D01*
X121492684Y-158402650D01*
X121351882Y-158424951D01*
X121148519Y-158491026D01*
X121148516Y-158491027D01*
X120957990Y-158588106D01*
X120784993Y-158713796D01*
X120633796Y-158864993D01*
X120508105Y-159037991D01*
X120505727Y-159041873D01*
X120453914Y-159088748D01*
X120384984Y-159100169D01*
X120320822Y-159072512D01*
X120294273Y-159041873D01*
X120291894Y-159037991D01*
X120255778Y-158988282D01*
X120166206Y-158864996D01*
X120015004Y-158713794D01*
X119842009Y-158588106D01*
X119651483Y-158491027D01*
X119651480Y-158491026D01*
X119448117Y-158424951D01*
X119342516Y-158408225D01*
X119236916Y-158391500D01*
X119023084Y-158391500D01*
X118952684Y-158402650D01*
X118811882Y-158424951D01*
X118608519Y-158491026D01*
X118608516Y-158491027D01*
X118417990Y-158588106D01*
X118244997Y-158713793D01*
X118139818Y-158818972D01*
X118078495Y-158852456D01*
X118008803Y-158847472D01*
X117952870Y-158805600D01*
X117935958Y-158774629D01*
X117890889Y-158653796D01*
X117803261Y-158536739D01*
X117686204Y-158449111D01*
X117549203Y-158398011D01*
X117488654Y-158391500D01*
X117488638Y-158391500D01*
X115691362Y-158391500D01*
X115691345Y-158391500D01*
X115630797Y-158398011D01*
X115630795Y-158398011D01*
X115493795Y-158449111D01*
X115376739Y-158536739D01*
X115289111Y-158653795D01*
X115238011Y-158790795D01*
X115238011Y-158790797D01*
X115231500Y-158851345D01*
X88821735Y-158851345D01*
X88821727Y-158848387D01*
X88799410Y-150843362D01*
X102542920Y-150843362D01*
X102542920Y-151106637D01*
X102542921Y-151106653D01*
X102577285Y-151367678D01*
X102645429Y-151621995D01*
X102746181Y-151865234D01*
X102746189Y-151865250D01*
X102877829Y-152093256D01*
X103038107Y-152302136D01*
X103038113Y-152302143D01*
X103224276Y-152488306D01*
X103224283Y-152488312D01*
X103433163Y-152648590D01*
X103661169Y-152780230D01*
X103661185Y-152780238D01*
X103812871Y-152843068D01*
X103904423Y-152880990D01*
X104158740Y-152949134D01*
X104419776Y-152983500D01*
X104419783Y-152983500D01*
X104683057Y-152983500D01*
X104683064Y-152983500D01*
X104944100Y-152949134D01*
X105198417Y-152880990D01*
X105381519Y-152805146D01*
X105441654Y-152780238D01*
X105441657Y-152780236D01*
X105441663Y-152780234D01*
X105669677Y-152648590D01*
X105878558Y-152488311D01*
X106064731Y-152302138D01*
X106225010Y-152093257D01*
X106356654Y-151865243D01*
X106457410Y-151621997D01*
X106525554Y-151367680D01*
X106559920Y-151106644D01*
X106559920Y-150843362D01*
X177541500Y-150843362D01*
X177541500Y-151106637D01*
X177541501Y-151106653D01*
X177575865Y-151367678D01*
X177644009Y-151621995D01*
X177744761Y-151865234D01*
X177744769Y-151865250D01*
X177876409Y-152093256D01*
X178036687Y-152302136D01*
X178036693Y-152302143D01*
X178222856Y-152488306D01*
X178222863Y-152488312D01*
X178431743Y-152648590D01*
X178659749Y-152780230D01*
X178659765Y-152780238D01*
X178811451Y-152843068D01*
X178903003Y-152880990D01*
X179157320Y-152949134D01*
X179418356Y-152983500D01*
X179418363Y-152983500D01*
X179681637Y-152983500D01*
X179681644Y-152983500D01*
X179942680Y-152949134D01*
X180196997Y-152880990D01*
X180380099Y-152805146D01*
X180440234Y-152780238D01*
X180440237Y-152780236D01*
X180440243Y-152780234D01*
X180668257Y-152648590D01*
X180877138Y-152488311D01*
X181063311Y-152302138D01*
X181223590Y-152093257D01*
X181355234Y-151865243D01*
X181455990Y-151621997D01*
X181524134Y-151367680D01*
X181558500Y-151106644D01*
X181558500Y-150843356D01*
X181524134Y-150582320D01*
X181455990Y-150328003D01*
X181418068Y-150236451D01*
X181355238Y-150084765D01*
X181355230Y-150084749D01*
X181223590Y-149856743D01*
X181063312Y-149647863D01*
X181063306Y-149647856D01*
X180877143Y-149461693D01*
X180877136Y-149461687D01*
X180668256Y-149301409D01*
X180440250Y-149169769D01*
X180440234Y-149169761D01*
X180196995Y-149069009D01*
X179942678Y-149000865D01*
X179681653Y-148966501D01*
X179681650Y-148966500D01*
X179681644Y-148966500D01*
X179418356Y-148966500D01*
X179418350Y-148966500D01*
X179418346Y-148966501D01*
X179157321Y-149000865D01*
X178903004Y-149069009D01*
X178659765Y-149169761D01*
X178659749Y-149169769D01*
X178431743Y-149301409D01*
X178222863Y-149461687D01*
X178222856Y-149461693D01*
X178036693Y-149647856D01*
X178036687Y-149647863D01*
X177876409Y-149856743D01*
X177744769Y-150084749D01*
X177744761Y-150084765D01*
X177644009Y-150328004D01*
X177575865Y-150582321D01*
X177541501Y-150843346D01*
X177541500Y-150843362D01*
X106559920Y-150843362D01*
X106559920Y-150843356D01*
X106525554Y-150582320D01*
X106457410Y-150328003D01*
X106419488Y-150236451D01*
X106356658Y-150084765D01*
X106356650Y-150084749D01*
X106225010Y-149856743D01*
X106064732Y-149647863D01*
X106064726Y-149647856D01*
X105878563Y-149461693D01*
X105878556Y-149461687D01*
X105669676Y-149301409D01*
X105441670Y-149169769D01*
X105441654Y-149169761D01*
X105198415Y-149069009D01*
X104944098Y-149000865D01*
X104683073Y-148966501D01*
X104683070Y-148966500D01*
X104683064Y-148966500D01*
X104419776Y-148966500D01*
X104419770Y-148966500D01*
X104419766Y-148966501D01*
X104158741Y-149000865D01*
X103904424Y-149069009D01*
X103661185Y-149169761D01*
X103661169Y-149169769D01*
X103433163Y-149301409D01*
X103224283Y-149461687D01*
X103224276Y-149461693D01*
X103038113Y-149647856D01*
X103038107Y-149647863D01*
X102877829Y-149856743D01*
X102746189Y-150084749D01*
X102746181Y-150084765D01*
X102645429Y-150328004D01*
X102577285Y-150582321D01*
X102542921Y-150843346D01*
X102542920Y-150843362D01*
X88799410Y-150843362D01*
X88799400Y-150839643D01*
X88725500Y-124331731D01*
X88725500Y-119842662D01*
X102542920Y-119842662D01*
X102542920Y-120105937D01*
X102542921Y-120105953D01*
X102577285Y-120366978D01*
X102645429Y-120621295D01*
X102746181Y-120864534D01*
X102746189Y-120864550D01*
X102877829Y-121092556D01*
X103038107Y-121301436D01*
X103038113Y-121301443D01*
X103224276Y-121487606D01*
X103224283Y-121487612D01*
X103433163Y-121647890D01*
X103661169Y-121779530D01*
X103661185Y-121779538D01*
X103812871Y-121842368D01*
X103904423Y-121880290D01*
X104158740Y-121948434D01*
X104419776Y-121982800D01*
X104419783Y-121982800D01*
X104683057Y-121982800D01*
X104683064Y-121982800D01*
X104944100Y-121948434D01*
X105198417Y-121880290D01*
X105381519Y-121804446D01*
X105441654Y-121779538D01*
X105441657Y-121779536D01*
X105441663Y-121779534D01*
X105669677Y-121647890D01*
X105878558Y-121487611D01*
X106064731Y-121301438D01*
X106225010Y-121092557D01*
X106356654Y-120864543D01*
X106457410Y-120621297D01*
X106525554Y-120366980D01*
X106559920Y-120105944D01*
X106559920Y-119842656D01*
X106525554Y-119581620D01*
X106457410Y-119327303D01*
X106419488Y-119235751D01*
X106356658Y-119084065D01*
X106356650Y-119084049D01*
X106225010Y-118856043D01*
X106104229Y-118698637D01*
X106064732Y-118647163D01*
X106064726Y-118647156D01*
X106044025Y-118626455D01*
X108650520Y-118626455D01*
X108650520Y-119724300D01*
X109502038Y-119724300D01*
X109491409Y-119742709D01*
X109450520Y-119895309D01*
X109450520Y-120053291D01*
X109491409Y-120205891D01*
X109502038Y-120224300D01*
X108650520Y-120224300D01*
X108650520Y-121322144D01*
X108656921Y-121381672D01*
X108656923Y-121381679D01*
X108707165Y-121516386D01*
X108707169Y-121516393D01*
X108793329Y-121631487D01*
X108793332Y-121631490D01*
X108908426Y-121717650D01*
X108908433Y-121717654D01*
X109043140Y-121767896D01*
X109043147Y-121767898D01*
X109102675Y-121774299D01*
X109102692Y-121774300D01*
X109800520Y-121774300D01*
X109800520Y-120522782D01*
X109818929Y-120533411D01*
X109971529Y-120574300D01*
X110129511Y-120574300D01*
X110282111Y-120533411D01*
X110300520Y-120522782D01*
X110300520Y-121774300D01*
X110998348Y-121774300D01*
X110998364Y-121774299D01*
X111057892Y-121767898D01*
X111057899Y-121767896D01*
X111192606Y-121717654D01*
X111192613Y-121717650D01*
X111307707Y-121631490D01*
X111307710Y-121631487D01*
X111393870Y-121516393D01*
X111393874Y-121516386D01*
X111420660Y-121444570D01*
X111462531Y-121388636D01*
X111527995Y-121364219D01*
X111596268Y-121379070D01*
X111624523Y-121400222D01*
X111672944Y-121448643D01*
X111852305Y-121578957D01*
X111945634Y-121626510D01*
X112049839Y-121679606D01*
X112049841Y-121679606D01*
X112049844Y-121679608D01*
X112260696Y-121748118D01*
X112479669Y-121782800D01*
X112479670Y-121782800D01*
X112701370Y-121782800D01*
X112701371Y-121782800D01*
X112920344Y-121748118D01*
X113131196Y-121679608D01*
X113328735Y-121578957D01*
X113508096Y-121448643D01*
X113664863Y-121291876D01*
X113765456Y-121153422D01*
X113820785Y-121110757D01*
X113890398Y-121104778D01*
X113952193Y-121137384D01*
X113966091Y-121153423D01*
X114062657Y-121286335D01*
X114062662Y-121286341D01*
X114218478Y-121442157D01*
X114396759Y-121571686D01*
X114593109Y-121671732D01*
X114802683Y-121739826D01*
X114880519Y-121752154D01*
X114880520Y-121752154D01*
X114880520Y-120522782D01*
X114898929Y-120533411D01*
X115051529Y-120574300D01*
X115209511Y-120574300D01*
X115362111Y-120533411D01*
X115380520Y-120522782D01*
X115380520Y-121752154D01*
X115458354Y-121739826D01*
X115458357Y-121739826D01*
X115667930Y-121671732D01*
X115864280Y-121571686D01*
X116042561Y-121442157D01*
X116198376Y-121286342D01*
X116294947Y-121153423D01*
X116350277Y-121110757D01*
X116419891Y-121104778D01*
X116481686Y-121137383D01*
X116495582Y-121153420D01*
X116596177Y-121291876D01*
X116752944Y-121448643D01*
X116932305Y-121578957D01*
X117025634Y-121626510D01*
X117129839Y-121679606D01*
X117129841Y-121679606D01*
X117129844Y-121679608D01*
X117340696Y-121748118D01*
X117559669Y-121782800D01*
X117559670Y-121782800D01*
X117781370Y-121782800D01*
X117781371Y-121782800D01*
X118000344Y-121748118D01*
X118211196Y-121679608D01*
X118408735Y-121578957D01*
X118588096Y-121448643D01*
X118744863Y-121291876D01*
X118845456Y-121153422D01*
X118900785Y-121110757D01*
X118970398Y-121104778D01*
X119032193Y-121137384D01*
X119046091Y-121153423D01*
X119142657Y-121286335D01*
X119142662Y-121286341D01*
X119298478Y-121442157D01*
X119476759Y-121571686D01*
X119673109Y-121671732D01*
X119882683Y-121739826D01*
X119960519Y-121752154D01*
X119960520Y-121752154D01*
X119960520Y-120522782D01*
X119978929Y-120533411D01*
X120131529Y-120574300D01*
X120289511Y-120574300D01*
X120442111Y-120533411D01*
X120460520Y-120522782D01*
X120460520Y-121752154D01*
X120538354Y-121739826D01*
X120538357Y-121739826D01*
X120747930Y-121671732D01*
X120944280Y-121571686D01*
X121122561Y-121442157D01*
X121278376Y-121286342D01*
X121374947Y-121153423D01*
X121430277Y-121110757D01*
X121499891Y-121104778D01*
X121561686Y-121137383D01*
X121575582Y-121153420D01*
X121676177Y-121291876D01*
X121832944Y-121448643D01*
X122012305Y-121578957D01*
X122105634Y-121626510D01*
X122209839Y-121679606D01*
X122209841Y-121679606D01*
X122209844Y-121679608D01*
X122420696Y-121748118D01*
X122639669Y-121782800D01*
X122639670Y-121782800D01*
X122861370Y-121782800D01*
X122861371Y-121782800D01*
X123080344Y-121748118D01*
X123291196Y-121679608D01*
X123488735Y-121578957D01*
X123668096Y-121448643D01*
X123824863Y-121291876D01*
X123920203Y-121160652D01*
X123975532Y-121117988D01*
X124045146Y-121112009D01*
X124106941Y-121144615D01*
X124120834Y-121160649D01*
X124216177Y-121291876D01*
X124372944Y-121448643D01*
X124552305Y-121578957D01*
X124645634Y-121626510D01*
X124749839Y-121679606D01*
X124749841Y-121679606D01*
X124749844Y-121679608D01*
X124960696Y-121748118D01*
X125179669Y-121782800D01*
X125179670Y-121782800D01*
X125401370Y-121782800D01*
X125401371Y-121782800D01*
X125620344Y-121748118D01*
X125831196Y-121679608D01*
X126028735Y-121578957D01*
X126208096Y-121448643D01*
X126364863Y-121291876D01*
X126460203Y-121160652D01*
X126515532Y-121117988D01*
X126585146Y-121112009D01*
X126646941Y-121144615D01*
X126660834Y-121160649D01*
X126756177Y-121291876D01*
X126912944Y-121448643D01*
X127092305Y-121578957D01*
X127185634Y-121626510D01*
X127289839Y-121679606D01*
X127289841Y-121679606D01*
X127289844Y-121679608D01*
X127500696Y-121748118D01*
X127719669Y-121782800D01*
X127719670Y-121782800D01*
X127941370Y-121782800D01*
X127941371Y-121782800D01*
X128160344Y-121748118D01*
X128371196Y-121679608D01*
X128568735Y-121578957D01*
X128748096Y-121448643D01*
X128904863Y-121291876D01*
X129000203Y-121160652D01*
X129055532Y-121117988D01*
X129125146Y-121112009D01*
X129186941Y-121144615D01*
X129200834Y-121160649D01*
X129296177Y-121291876D01*
X129452944Y-121448643D01*
X129632305Y-121578957D01*
X129725634Y-121626510D01*
X129829839Y-121679606D01*
X129829841Y-121679606D01*
X129829844Y-121679608D01*
X130040696Y-121748118D01*
X130259669Y-121782800D01*
X130259670Y-121782800D01*
X130481370Y-121782800D01*
X130481371Y-121782800D01*
X130700344Y-121748118D01*
X130911196Y-121679608D01*
X131108735Y-121578957D01*
X131288096Y-121448643D01*
X131444863Y-121291876D01*
X131540203Y-121160652D01*
X131595532Y-121117988D01*
X131665146Y-121112009D01*
X131726941Y-121144615D01*
X131740834Y-121160649D01*
X131836177Y-121291876D01*
X131992944Y-121448643D01*
X132172305Y-121578957D01*
X132265634Y-121626510D01*
X132369839Y-121679606D01*
X132369841Y-121679606D01*
X132369844Y-121679608D01*
X132580696Y-121748118D01*
X132799669Y-121782800D01*
X132799670Y-121782800D01*
X133021370Y-121782800D01*
X133021371Y-121782800D01*
X133240344Y-121748118D01*
X133451196Y-121679608D01*
X133648735Y-121578957D01*
X133828096Y-121448643D01*
X133984863Y-121291876D01*
X134080203Y-121160652D01*
X134135532Y-121117988D01*
X134205146Y-121112009D01*
X134266941Y-121144615D01*
X134280834Y-121160649D01*
X134376177Y-121291876D01*
X134532944Y-121448643D01*
X134712305Y-121578957D01*
X134805634Y-121626510D01*
X134909839Y-121679606D01*
X134909841Y-121679606D01*
X134909844Y-121679608D01*
X135120696Y-121748118D01*
X135339669Y-121782800D01*
X135339670Y-121782800D01*
X135561370Y-121782800D01*
X135561371Y-121782800D01*
X135780344Y-121748118D01*
X135991196Y-121679608D01*
X136188735Y-121578957D01*
X136368096Y-121448643D01*
X136524863Y-121291876D01*
X136620203Y-121160652D01*
X136675532Y-121117988D01*
X136745146Y-121112009D01*
X136806941Y-121144615D01*
X136820834Y-121160649D01*
X136916177Y-121291876D01*
X137072944Y-121448643D01*
X137252305Y-121578957D01*
X137345634Y-121626510D01*
X137449839Y-121679606D01*
X137449841Y-121679606D01*
X137449844Y-121679608D01*
X137660696Y-121748118D01*
X137879669Y-121782800D01*
X137879670Y-121782800D01*
X138101370Y-121782800D01*
X138101371Y-121782800D01*
X138320344Y-121748118D01*
X138531196Y-121679608D01*
X138728735Y-121578957D01*
X138908096Y-121448643D01*
X139064863Y-121291876D01*
X139160203Y-121160652D01*
X139215532Y-121117988D01*
X139285146Y-121112009D01*
X139346941Y-121144615D01*
X139360834Y-121160649D01*
X139456177Y-121291876D01*
X139612944Y-121448643D01*
X139792305Y-121578957D01*
X139885634Y-121626510D01*
X139989839Y-121679606D01*
X139989841Y-121679606D01*
X139989844Y-121679608D01*
X140200696Y-121748118D01*
X140419669Y-121782800D01*
X140419670Y-121782800D01*
X140641370Y-121782800D01*
X140641371Y-121782800D01*
X140860344Y-121748118D01*
X141071196Y-121679608D01*
X141268735Y-121578957D01*
X141448096Y-121448643D01*
X141604863Y-121291876D01*
X141700203Y-121160652D01*
X141755532Y-121117988D01*
X141825146Y-121112009D01*
X141886941Y-121144615D01*
X141900834Y-121160649D01*
X141996177Y-121291876D01*
X142152944Y-121448643D01*
X142332305Y-121578957D01*
X142425634Y-121626510D01*
X142529839Y-121679606D01*
X142529841Y-121679606D01*
X142529844Y-121679608D01*
X142740696Y-121748118D01*
X142959669Y-121782800D01*
X142959670Y-121782800D01*
X143181370Y-121782800D01*
X143181371Y-121782800D01*
X143400344Y-121748118D01*
X143611196Y-121679608D01*
X143808735Y-121578957D01*
X143988096Y-121448643D01*
X144144863Y-121291876D01*
X144240203Y-121160652D01*
X144295532Y-121117988D01*
X144365146Y-121112009D01*
X144426941Y-121144615D01*
X144440834Y-121160649D01*
X144536177Y-121291876D01*
X144692944Y-121448643D01*
X144872305Y-121578957D01*
X144965634Y-121626510D01*
X145069839Y-121679606D01*
X145069841Y-121679606D01*
X145069844Y-121679608D01*
X145280696Y-121748118D01*
X145499669Y-121782800D01*
X145499670Y-121782800D01*
X145721370Y-121782800D01*
X145721371Y-121782800D01*
X145940344Y-121748118D01*
X146151196Y-121679608D01*
X146348735Y-121578957D01*
X146528096Y-121448643D01*
X146684863Y-121291876D01*
X146785456Y-121153422D01*
X146840785Y-121110757D01*
X146910398Y-121104778D01*
X146972193Y-121137384D01*
X146986091Y-121153423D01*
X147082657Y-121286335D01*
X147082662Y-121286341D01*
X147238478Y-121442157D01*
X147416759Y-121571686D01*
X147613109Y-121671732D01*
X147822683Y-121739826D01*
X147900519Y-121752154D01*
X147900520Y-121752154D01*
X147900520Y-120522782D01*
X147918929Y-120533411D01*
X148071529Y-120574300D01*
X148229511Y-120574300D01*
X148382111Y-120533411D01*
X148400520Y-120522782D01*
X148400520Y-121752154D01*
X148478354Y-121739826D01*
X148478357Y-121739826D01*
X148687930Y-121671732D01*
X148884280Y-121571686D01*
X149062561Y-121442157D01*
X149218377Y-121286341D01*
X149347906Y-121108060D01*
X149447952Y-120911710D01*
X149516046Y-120702135D01*
X149550520Y-120484481D01*
X149550520Y-120224300D01*
X148699002Y-120224300D01*
X148709631Y-120205891D01*
X148750520Y-120053291D01*
X148750520Y-119895309D01*
X148736413Y-119842662D01*
X177542020Y-119842662D01*
X177542020Y-120105937D01*
X177542021Y-120105953D01*
X177576385Y-120366978D01*
X177644529Y-120621295D01*
X177745281Y-120864534D01*
X177745289Y-120864550D01*
X177876929Y-121092556D01*
X178037207Y-121301436D01*
X178037213Y-121301443D01*
X178223376Y-121487606D01*
X178223383Y-121487612D01*
X178432263Y-121647890D01*
X178660269Y-121779530D01*
X178660285Y-121779538D01*
X178811971Y-121842368D01*
X178903523Y-121880290D01*
X179157840Y-121948434D01*
X179418876Y-121982800D01*
X179418883Y-121982800D01*
X179682157Y-121982800D01*
X179682164Y-121982800D01*
X179943200Y-121948434D01*
X180197517Y-121880290D01*
X180380619Y-121804446D01*
X180440754Y-121779538D01*
X180440757Y-121779536D01*
X180440763Y-121779534D01*
X180668777Y-121647890D01*
X180877658Y-121487611D01*
X181063831Y-121301438D01*
X181224110Y-121092557D01*
X181355754Y-120864543D01*
X181456510Y-120621297D01*
X181524654Y-120366980D01*
X181559020Y-120105944D01*
X181559020Y-119842656D01*
X181524654Y-119581620D01*
X181456510Y-119327303D01*
X181418588Y-119235751D01*
X181355758Y-119084065D01*
X181355750Y-119084049D01*
X181224110Y-118856043D01*
X181063832Y-118647163D01*
X181063826Y-118647156D01*
X180877663Y-118460993D01*
X180877656Y-118460987D01*
X180668776Y-118300709D01*
X180440770Y-118169069D01*
X180440754Y-118169061D01*
X180197515Y-118068309D01*
X179943198Y-118000165D01*
X179682173Y-117965801D01*
X179682170Y-117965800D01*
X179682164Y-117965800D01*
X179418876Y-117965800D01*
X179418870Y-117965800D01*
X179418866Y-117965801D01*
X179157841Y-118000165D01*
X178903524Y-118068309D01*
X178660285Y-118169061D01*
X178660269Y-118169069D01*
X178432263Y-118300709D01*
X178223383Y-118460987D01*
X178223376Y-118460993D01*
X178037213Y-118647156D01*
X178037207Y-118647163D01*
X177876929Y-118856043D01*
X177745289Y-119084049D01*
X177745281Y-119084065D01*
X177644529Y-119327304D01*
X177576385Y-119581621D01*
X177542021Y-119842646D01*
X177542020Y-119842662D01*
X148736413Y-119842662D01*
X148709631Y-119742709D01*
X148699002Y-119724300D01*
X149550520Y-119724300D01*
X149550520Y-119464118D01*
X149516046Y-119246464D01*
X149447952Y-119036889D01*
X149347906Y-118840539D01*
X149218377Y-118662258D01*
X149062561Y-118506442D01*
X148884280Y-118376913D01*
X148687930Y-118276867D01*
X148478356Y-118208773D01*
X148400520Y-118196444D01*
X148400520Y-119425817D01*
X148382111Y-119415189D01*
X148229511Y-119374300D01*
X148071529Y-119374300D01*
X147918929Y-119415189D01*
X147900520Y-119425817D01*
X147900520Y-118196444D01*
X147822684Y-118208773D01*
X147822681Y-118208773D01*
X147613109Y-118276867D01*
X147416759Y-118376913D01*
X147238478Y-118506442D01*
X147082662Y-118662258D01*
X147082662Y-118662259D01*
X146986091Y-118795177D01*
X146930761Y-118837842D01*
X146861147Y-118843821D01*
X146799352Y-118811215D01*
X146785455Y-118795177D01*
X146684863Y-118656724D01*
X146528096Y-118499957D01*
X146348735Y-118369643D01*
X146151200Y-118268993D01*
X145940344Y-118200482D01*
X145914849Y-118196444D01*
X145721371Y-118165800D01*
X145499669Y-118165800D01*
X145390182Y-118183141D01*
X145280695Y-118200482D01*
X145069839Y-118268993D01*
X144872304Y-118369643D01*
X144786195Y-118432206D01*
X144692944Y-118499957D01*
X144692942Y-118499959D01*
X144692941Y-118499959D01*
X144536178Y-118656722D01*
X144440838Y-118787946D01*
X144385507Y-118830611D01*
X144315894Y-118836590D01*
X144254099Y-118803984D01*
X144240202Y-118787946D01*
X144215304Y-118753677D01*
X144144863Y-118656724D01*
X143988096Y-118499957D01*
X143808735Y-118369643D01*
X143611200Y-118268993D01*
X143400344Y-118200482D01*
X143374849Y-118196444D01*
X143181371Y-118165800D01*
X142959669Y-118165800D01*
X142850182Y-118183141D01*
X142740695Y-118200482D01*
X142529839Y-118268993D01*
X142332304Y-118369643D01*
X142246195Y-118432206D01*
X142152944Y-118499957D01*
X142152942Y-118499959D01*
X142152941Y-118499959D01*
X141996178Y-118656722D01*
X141900838Y-118787946D01*
X141845507Y-118830611D01*
X141775894Y-118836590D01*
X141714099Y-118803984D01*
X141700202Y-118787946D01*
X141675304Y-118753677D01*
X141604863Y-118656724D01*
X141448096Y-118499957D01*
X141268735Y-118369643D01*
X141071200Y-118268993D01*
X140860344Y-118200482D01*
X140834849Y-118196444D01*
X140641371Y-118165800D01*
X140419669Y-118165800D01*
X140310182Y-118183141D01*
X140200695Y-118200482D01*
X139989839Y-118268993D01*
X139792304Y-118369643D01*
X139706195Y-118432206D01*
X139612944Y-118499957D01*
X139612942Y-118499959D01*
X139612941Y-118499959D01*
X139456178Y-118656722D01*
X139360838Y-118787946D01*
X139305507Y-118830611D01*
X139235894Y-118836590D01*
X139174099Y-118803984D01*
X139160202Y-118787946D01*
X139135304Y-118753677D01*
X139064863Y-118656724D01*
X138908096Y-118499957D01*
X138728735Y-118369643D01*
X138531200Y-118268993D01*
X138320344Y-118200482D01*
X138294849Y-118196444D01*
X138101371Y-118165800D01*
X137879669Y-118165800D01*
X137770182Y-118183141D01*
X137660695Y-118200482D01*
X137449839Y-118268993D01*
X137252304Y-118369643D01*
X137166195Y-118432206D01*
X137072944Y-118499957D01*
X137072942Y-118499959D01*
X137072941Y-118499959D01*
X136916178Y-118656722D01*
X136820838Y-118787946D01*
X136765507Y-118830611D01*
X136695894Y-118836590D01*
X136634099Y-118803984D01*
X136620202Y-118787946D01*
X136595304Y-118753677D01*
X136524863Y-118656724D01*
X136368096Y-118499957D01*
X136188735Y-118369643D01*
X135991200Y-118268993D01*
X135780344Y-118200482D01*
X135754849Y-118196444D01*
X135561371Y-118165800D01*
X135339669Y-118165800D01*
X135230182Y-118183141D01*
X135120695Y-118200482D01*
X134909839Y-118268993D01*
X134712304Y-118369643D01*
X134626195Y-118432206D01*
X134532944Y-118499957D01*
X134532942Y-118499959D01*
X134532941Y-118499959D01*
X134376178Y-118656722D01*
X134280838Y-118787946D01*
X134225507Y-118830611D01*
X134155894Y-118836590D01*
X134094099Y-118803984D01*
X134080202Y-118787946D01*
X134055304Y-118753677D01*
X133984863Y-118656724D01*
X133828096Y-118499957D01*
X133648735Y-118369643D01*
X133451200Y-118268993D01*
X133240344Y-118200482D01*
X133214849Y-118196444D01*
X133021371Y-118165800D01*
X132799669Y-118165800D01*
X132690182Y-118183141D01*
X132580695Y-118200482D01*
X132369839Y-118268993D01*
X132172304Y-118369643D01*
X132086195Y-118432206D01*
X131992944Y-118499957D01*
X131992942Y-118499959D01*
X131992941Y-118499959D01*
X131836178Y-118656722D01*
X131740838Y-118787946D01*
X131685507Y-118830611D01*
X131615894Y-118836590D01*
X131554099Y-118803984D01*
X131540202Y-118787946D01*
X131515304Y-118753677D01*
X131444863Y-118656724D01*
X131288096Y-118499957D01*
X131108735Y-118369643D01*
X130911200Y-118268993D01*
X130700344Y-118200482D01*
X130674849Y-118196444D01*
X130481371Y-118165800D01*
X130259669Y-118165800D01*
X130150182Y-118183141D01*
X130040695Y-118200482D01*
X129829839Y-118268993D01*
X129632304Y-118369643D01*
X129546195Y-118432206D01*
X129452944Y-118499957D01*
X129452942Y-118499959D01*
X129452941Y-118499959D01*
X129296178Y-118656722D01*
X129200838Y-118787946D01*
X129145507Y-118830611D01*
X129075894Y-118836590D01*
X129014099Y-118803984D01*
X129000202Y-118787946D01*
X128975304Y-118753677D01*
X128904863Y-118656724D01*
X128748096Y-118499957D01*
X128568735Y-118369643D01*
X128371200Y-118268993D01*
X128160344Y-118200482D01*
X128134849Y-118196444D01*
X127941371Y-118165800D01*
X127719669Y-118165800D01*
X127610182Y-118183141D01*
X127500695Y-118200482D01*
X127289839Y-118268993D01*
X127092304Y-118369643D01*
X127006195Y-118432206D01*
X126912944Y-118499957D01*
X126912942Y-118499959D01*
X126912941Y-118499959D01*
X126756178Y-118656722D01*
X126660838Y-118787946D01*
X126605507Y-118830611D01*
X126535894Y-118836590D01*
X126474099Y-118803984D01*
X126460202Y-118787946D01*
X126435304Y-118753677D01*
X126364863Y-118656724D01*
X126208096Y-118499957D01*
X126028735Y-118369643D01*
X125831200Y-118268993D01*
X125620344Y-118200482D01*
X125594849Y-118196444D01*
X125401371Y-118165800D01*
X125179669Y-118165800D01*
X125070182Y-118183141D01*
X124960695Y-118200482D01*
X124749839Y-118268993D01*
X124552304Y-118369643D01*
X124466195Y-118432206D01*
X124372944Y-118499957D01*
X124372942Y-118499959D01*
X124372941Y-118499959D01*
X124216178Y-118656722D01*
X124120838Y-118787946D01*
X124065507Y-118830611D01*
X123995894Y-118836590D01*
X123934099Y-118803984D01*
X123920202Y-118787946D01*
X123895304Y-118753677D01*
X123824863Y-118656724D01*
X123668096Y-118499957D01*
X123488735Y-118369643D01*
X123291200Y-118268993D01*
X123080344Y-118200482D01*
X123054849Y-118196444D01*
X122861371Y-118165800D01*
X122639669Y-118165800D01*
X122530182Y-118183141D01*
X122420695Y-118200482D01*
X122209839Y-118268993D01*
X122012304Y-118369643D01*
X121926195Y-118432206D01*
X121832944Y-118499957D01*
X121832942Y-118499959D01*
X121832941Y-118499959D01*
X121676178Y-118656722D01*
X121575584Y-118795177D01*
X121520253Y-118837842D01*
X121450640Y-118843821D01*
X121388845Y-118811215D01*
X121374948Y-118795176D01*
X121278382Y-118662264D01*
X121278377Y-118662258D01*
X121122561Y-118506442D01*
X120944280Y-118376913D01*
X120747930Y-118276867D01*
X120538356Y-118208773D01*
X120460520Y-118196444D01*
X120460520Y-119425817D01*
X120442111Y-119415189D01*
X120289511Y-119374300D01*
X120131529Y-119374300D01*
X119978929Y-119415189D01*
X119960520Y-119425817D01*
X119960520Y-118196444D01*
X119882684Y-118208773D01*
X119882681Y-118208773D01*
X119673109Y-118276867D01*
X119476759Y-118376913D01*
X119298478Y-118506442D01*
X119142662Y-118662258D01*
X119142662Y-118662259D01*
X119046091Y-118795177D01*
X118990761Y-118837842D01*
X118921147Y-118843821D01*
X118859352Y-118811215D01*
X118845455Y-118795177D01*
X118744863Y-118656724D01*
X118588096Y-118499957D01*
X118408735Y-118369643D01*
X118211200Y-118268993D01*
X118000344Y-118200482D01*
X117974849Y-118196444D01*
X117781371Y-118165800D01*
X117559669Y-118165800D01*
X117450182Y-118183141D01*
X117340695Y-118200482D01*
X117129839Y-118268993D01*
X116932304Y-118369643D01*
X116846195Y-118432206D01*
X116752944Y-118499957D01*
X116752942Y-118499959D01*
X116752941Y-118499959D01*
X116596178Y-118656722D01*
X116495584Y-118795177D01*
X116440253Y-118837842D01*
X116370640Y-118843821D01*
X116308845Y-118811215D01*
X116294948Y-118795176D01*
X116198382Y-118662264D01*
X116198377Y-118662258D01*
X116042561Y-118506442D01*
X115864280Y-118376913D01*
X115667930Y-118276867D01*
X115458356Y-118208773D01*
X115380520Y-118196444D01*
X115380520Y-119425817D01*
X115362111Y-119415189D01*
X115209511Y-119374300D01*
X115051529Y-119374300D01*
X114898929Y-119415189D01*
X114880520Y-119425817D01*
X114880520Y-118196444D01*
X114802684Y-118208773D01*
X114802681Y-118208773D01*
X114593109Y-118276867D01*
X114396759Y-118376913D01*
X114218478Y-118506442D01*
X114062662Y-118662258D01*
X114062662Y-118662259D01*
X113966091Y-118795177D01*
X113910761Y-118837842D01*
X113841147Y-118843821D01*
X113779352Y-118811215D01*
X113765455Y-118795177D01*
X113664863Y-118656724D01*
X113508096Y-118499957D01*
X113328735Y-118369643D01*
X113131200Y-118268993D01*
X112920344Y-118200482D01*
X112894849Y-118196444D01*
X112701371Y-118165800D01*
X112479669Y-118165800D01*
X112370182Y-118183141D01*
X112260695Y-118200482D01*
X112049839Y-118268993D01*
X111852304Y-118369643D01*
X111766195Y-118432206D01*
X111672944Y-118499957D01*
X111672942Y-118499959D01*
X111672940Y-118499960D01*
X111624522Y-118548378D01*
X111563199Y-118581862D01*
X111493507Y-118576877D01*
X111437574Y-118535005D01*
X111420660Y-118504029D01*
X111393874Y-118432213D01*
X111393870Y-118432206D01*
X111307710Y-118317112D01*
X111307707Y-118317109D01*
X111192613Y-118230949D01*
X111192606Y-118230945D01*
X111057899Y-118180703D01*
X111057892Y-118180701D01*
X110998364Y-118174300D01*
X110300520Y-118174300D01*
X110300520Y-119425817D01*
X110282111Y-119415189D01*
X110129511Y-119374300D01*
X109971529Y-119374300D01*
X109818929Y-119415189D01*
X109800520Y-119425817D01*
X109800520Y-118174300D01*
X109102675Y-118174300D01*
X109043147Y-118180701D01*
X109043140Y-118180703D01*
X108908433Y-118230945D01*
X108908426Y-118230949D01*
X108793332Y-118317109D01*
X108793329Y-118317112D01*
X108707169Y-118432206D01*
X108707165Y-118432213D01*
X108656923Y-118566920D01*
X108656921Y-118566927D01*
X108650520Y-118626455D01*
X106044025Y-118626455D01*
X105878563Y-118460993D01*
X105878556Y-118460987D01*
X105669676Y-118300709D01*
X105441670Y-118169069D01*
X105441654Y-118169061D01*
X105198415Y-118068309D01*
X104944098Y-118000165D01*
X104683073Y-117965801D01*
X104683070Y-117965800D01*
X104683064Y-117965800D01*
X104419776Y-117965800D01*
X104419770Y-117965800D01*
X104419766Y-117965801D01*
X104158741Y-118000165D01*
X103904424Y-118068309D01*
X103661185Y-118169061D01*
X103661169Y-118169069D01*
X103433163Y-118300709D01*
X103224283Y-118460987D01*
X103224276Y-118460993D01*
X103038113Y-118647156D01*
X103038107Y-118647163D01*
X102877829Y-118856043D01*
X102746189Y-119084049D01*
X102746181Y-119084065D01*
X102645429Y-119327304D01*
X102577285Y-119581621D01*
X102542921Y-119842646D01*
X102542920Y-119842662D01*
X88725500Y-119842662D01*
X88725500Y-110601345D01*
X124361500Y-110601345D01*
X124361500Y-112398654D01*
X124368011Y-112459202D01*
X124368011Y-112459204D01*
X124419111Y-112596204D01*
X124506739Y-112713261D01*
X124623796Y-112800889D01*
X124760799Y-112851989D01*
X124788050Y-112854918D01*
X124821345Y-112858499D01*
X124821362Y-112858500D01*
X126618638Y-112858500D01*
X126618654Y-112858499D01*
X126645692Y-112855591D01*
X126679201Y-112851989D01*
X126816204Y-112800889D01*
X126933261Y-112713261D01*
X127020889Y-112596204D01*
X127065957Y-112475371D01*
X127107827Y-112419442D01*
X127173291Y-112395025D01*
X127241564Y-112409877D01*
X127269818Y-112431028D01*
X127374996Y-112536206D01*
X127547991Y-112661894D01*
X127641438Y-112709507D01*
X127738516Y-112758972D01*
X127738519Y-112758973D01*
X127840200Y-112792010D01*
X127941884Y-112825049D01*
X128153084Y-112858500D01*
X128153085Y-112858500D01*
X128366915Y-112858500D01*
X128366916Y-112858500D01*
X128578116Y-112825049D01*
X128781483Y-112758972D01*
X128972009Y-112661894D01*
X129145004Y-112536206D01*
X129296206Y-112385004D01*
X129421894Y-112212009D01*
X129421896Y-112212004D01*
X129424270Y-112208132D01*
X129476080Y-112161254D01*
X129545009Y-112149829D01*
X129609173Y-112177483D01*
X129635730Y-112208132D01*
X129638103Y-112212005D01*
X129638105Y-112212008D01*
X129638106Y-112212009D01*
X129763794Y-112385004D01*
X129914996Y-112536206D01*
X130087991Y-112661894D01*
X130181438Y-112709507D01*
X130278516Y-112758972D01*
X130278519Y-112758973D01*
X130380200Y-112792010D01*
X130481884Y-112825049D01*
X130693084Y-112858500D01*
X130693085Y-112858500D01*
X130906915Y-112858500D01*
X130906916Y-112858500D01*
X131118116Y-112825049D01*
X131321483Y-112758972D01*
X131512009Y-112661894D01*
X131685004Y-112536206D01*
X131836206Y-112385004D01*
X131961894Y-112212009D01*
X131961896Y-112212004D01*
X131964270Y-112208132D01*
X132016080Y-112161254D01*
X132085009Y-112149829D01*
X132149173Y-112177483D01*
X132175730Y-112208132D01*
X132178103Y-112212005D01*
X132178105Y-112212008D01*
X132178106Y-112212009D01*
X132303794Y-112385004D01*
X132454996Y-112536206D01*
X132627991Y-112661894D01*
X132721438Y-112709507D01*
X132818516Y-112758972D01*
X132818519Y-112758973D01*
X132920200Y-112792010D01*
X133021884Y-112825049D01*
X133233084Y-112858500D01*
X133233085Y-112858500D01*
X133446915Y-112858500D01*
X133446916Y-112858500D01*
X133658116Y-112825049D01*
X133861483Y-112758972D01*
X134052009Y-112661894D01*
X134225004Y-112536206D01*
X134376206Y-112385004D01*
X134501894Y-112212009D01*
X134501896Y-112212004D01*
X134504270Y-112208132D01*
X134556080Y-112161254D01*
X134625009Y-112149829D01*
X134689173Y-112177483D01*
X134715730Y-112208132D01*
X134718103Y-112212005D01*
X134718105Y-112212008D01*
X134718106Y-112212009D01*
X134843794Y-112385004D01*
X134994996Y-112536206D01*
X135167991Y-112661894D01*
X135261438Y-112709507D01*
X135358516Y-112758972D01*
X135358519Y-112758973D01*
X135460200Y-112792010D01*
X135561884Y-112825049D01*
X135773084Y-112858500D01*
X135773085Y-112858500D01*
X135986915Y-112858500D01*
X135986916Y-112858500D01*
X136198116Y-112825049D01*
X136401483Y-112758972D01*
X136592009Y-112661894D01*
X136765004Y-112536206D01*
X136916206Y-112385004D01*
X137041894Y-112212009D01*
X137044283Y-112207319D01*
X137092254Y-112156522D01*
X137160074Y-112139724D01*
X137226210Y-112162258D01*
X137262196Y-112203783D01*
X137262829Y-112203396D01*
X137265167Y-112207211D01*
X137265251Y-112207308D01*
X137265371Y-112207545D01*
X137265373Y-112207547D01*
X137304728Y-112261716D01*
X137937037Y-111629408D01*
X137954075Y-111692993D01*
X138019901Y-111807007D01*
X138112993Y-111900099D01*
X138227007Y-111965925D01*
X138290590Y-111982962D01*
X137658282Y-112615269D01*
X137658282Y-112615270D01*
X137712449Y-112654624D01*
X137901782Y-112751095D01*
X138103870Y-112816757D01*
X138313754Y-112850000D01*
X138526246Y-112850000D01*
X138736127Y-112816757D01*
X138736130Y-112816757D01*
X138938217Y-112751095D01*
X139127554Y-112654622D01*
X139181716Y-112615270D01*
X139181717Y-112615270D01*
X138549408Y-111982962D01*
X138612993Y-111965925D01*
X138727007Y-111900099D01*
X138820099Y-111807007D01*
X138885925Y-111692993D01*
X138902962Y-111629409D01*
X139535270Y-112261717D01*
X139535270Y-112261716D01*
X139574622Y-112207554D01*
X139579514Y-112197954D01*
X139627488Y-112147157D01*
X139695308Y-112130361D01*
X139761444Y-112152897D01*
X139800486Y-112197954D01*
X139805375Y-112207550D01*
X139844728Y-112261716D01*
X140477037Y-111629408D01*
X140494075Y-111692993D01*
X140559901Y-111807007D01*
X140652993Y-111900099D01*
X140767007Y-111965925D01*
X140830590Y-111982962D01*
X140198282Y-112615269D01*
X140198282Y-112615270D01*
X140252449Y-112654624D01*
X140441782Y-112751095D01*
X140643870Y-112816757D01*
X140853754Y-112850000D01*
X141066246Y-112850000D01*
X141276127Y-112816757D01*
X141276130Y-112816757D01*
X141478217Y-112751095D01*
X141667554Y-112654622D01*
X141721716Y-112615270D01*
X141721717Y-112615270D01*
X141089408Y-111982962D01*
X141152993Y-111965925D01*
X141267007Y-111900099D01*
X141360099Y-111807007D01*
X141425925Y-111692993D01*
X141442962Y-111629408D01*
X142075270Y-112261717D01*
X142075270Y-112261716D01*
X142114621Y-112207556D01*
X142114738Y-112207327D01*
X142114808Y-112207252D01*
X142117168Y-112203402D01*
X142117976Y-112203897D01*
X142162707Y-112156526D01*
X142230526Y-112139723D01*
X142296663Y-112162254D01*
X142335712Y-112207311D01*
X142338105Y-112212008D01*
X142374220Y-112261716D01*
X142463794Y-112385004D01*
X142614996Y-112536206D01*
X142787991Y-112661894D01*
X142881438Y-112709507D01*
X142978516Y-112758972D01*
X142978519Y-112758973D01*
X143080200Y-112792010D01*
X143181884Y-112825049D01*
X143393084Y-112858500D01*
X143393085Y-112858500D01*
X143606915Y-112858500D01*
X143606916Y-112858500D01*
X143818116Y-112825049D01*
X144021483Y-112758972D01*
X144212009Y-112661894D01*
X144385004Y-112536206D01*
X144536206Y-112385004D01*
X144661894Y-112212009D01*
X144758972Y-112021483D01*
X144825049Y-111818116D01*
X144858500Y-111606916D01*
X144858500Y-111393084D01*
X144825049Y-111181884D01*
X144758972Y-110978517D01*
X144758972Y-110978516D01*
X144703495Y-110869638D01*
X144661894Y-110787991D01*
X144536206Y-110614996D01*
X144522555Y-110601345D01*
X147216500Y-110601345D01*
X147216500Y-112398654D01*
X147223011Y-112459202D01*
X147223011Y-112459204D01*
X147274111Y-112596204D01*
X147361739Y-112713261D01*
X147478796Y-112800889D01*
X147615799Y-112851989D01*
X147643050Y-112854918D01*
X147676345Y-112858499D01*
X147676362Y-112858500D01*
X149473638Y-112858500D01*
X149473654Y-112858499D01*
X149500692Y-112855591D01*
X149534201Y-112851989D01*
X149671204Y-112800889D01*
X149788261Y-112713261D01*
X149875889Y-112596204D01*
X149920957Y-112475371D01*
X149962827Y-112419442D01*
X150028291Y-112395025D01*
X150096564Y-112409877D01*
X150124818Y-112431028D01*
X150229996Y-112536206D01*
X150402991Y-112661894D01*
X150496438Y-112709507D01*
X150593516Y-112758972D01*
X150593519Y-112758973D01*
X150695200Y-112792010D01*
X150796884Y-112825049D01*
X151008084Y-112858500D01*
X151008085Y-112858500D01*
X151221915Y-112858500D01*
X151221916Y-112858500D01*
X151433116Y-112825049D01*
X151636483Y-112758972D01*
X151827009Y-112661894D01*
X152000004Y-112536206D01*
X152151206Y-112385004D01*
X152276894Y-112212009D01*
X152276896Y-112212004D01*
X152279270Y-112208132D01*
X152331080Y-112161254D01*
X152400009Y-112149829D01*
X152464173Y-112177483D01*
X152490730Y-112208132D01*
X152493103Y-112212005D01*
X152493105Y-112212008D01*
X152493106Y-112212009D01*
X152618794Y-112385004D01*
X152769996Y-112536206D01*
X152942991Y-112661894D01*
X153036438Y-112709507D01*
X153133516Y-112758972D01*
X153133519Y-112758973D01*
X153235200Y-112792010D01*
X153336884Y-112825049D01*
X153548084Y-112858500D01*
X153548085Y-112858500D01*
X153761915Y-112858500D01*
X153761916Y-112858500D01*
X153973116Y-112825049D01*
X154176483Y-112758972D01*
X154367009Y-112661894D01*
X154540004Y-112536206D01*
X154691206Y-112385004D01*
X154816894Y-112212009D01*
X154816896Y-112212004D01*
X154819270Y-112208132D01*
X154871080Y-112161254D01*
X154940009Y-112149829D01*
X155004173Y-112177483D01*
X155030730Y-112208132D01*
X155033103Y-112212005D01*
X155033105Y-112212008D01*
X155033106Y-112212009D01*
X155158794Y-112385004D01*
X155309996Y-112536206D01*
X155482991Y-112661894D01*
X155576438Y-112709507D01*
X155673516Y-112758972D01*
X155673519Y-112758973D01*
X155775200Y-112792010D01*
X155876884Y-112825049D01*
X156088084Y-112858500D01*
X156088085Y-112858500D01*
X156301915Y-112858500D01*
X156301916Y-112858500D01*
X156513116Y-112825049D01*
X156716483Y-112758972D01*
X156907009Y-112661894D01*
X157080004Y-112536206D01*
X157231206Y-112385004D01*
X157356894Y-112212009D01*
X157356896Y-112212004D01*
X157359270Y-112208132D01*
X157411080Y-112161254D01*
X157480009Y-112149829D01*
X157544173Y-112177483D01*
X157570730Y-112208132D01*
X157573103Y-112212005D01*
X157573105Y-112212008D01*
X157573106Y-112212009D01*
X157698794Y-112385004D01*
X157849996Y-112536206D01*
X158022991Y-112661894D01*
X158116438Y-112709507D01*
X158213516Y-112758972D01*
X158213519Y-112758973D01*
X158315200Y-112792010D01*
X158416884Y-112825049D01*
X158628084Y-112858500D01*
X158628085Y-112858500D01*
X158841915Y-112858500D01*
X158841916Y-112858500D01*
X159053116Y-112825049D01*
X159256483Y-112758972D01*
X159447009Y-112661894D01*
X159620004Y-112536206D01*
X159771206Y-112385004D01*
X159896894Y-112212009D01*
X159896896Y-112212004D01*
X159899270Y-112208132D01*
X159951080Y-112161254D01*
X160020009Y-112149829D01*
X160084173Y-112177483D01*
X160110730Y-112208132D01*
X160113103Y-112212005D01*
X160113105Y-112212008D01*
X160113106Y-112212009D01*
X160238794Y-112385004D01*
X160389996Y-112536206D01*
X160562991Y-112661894D01*
X160656438Y-112709507D01*
X160753516Y-112758972D01*
X160753519Y-112758973D01*
X160855200Y-112792010D01*
X160956884Y-112825049D01*
X161168084Y-112858500D01*
X161168085Y-112858500D01*
X161381915Y-112858500D01*
X161381916Y-112858500D01*
X161593116Y-112825049D01*
X161796483Y-112758972D01*
X161987009Y-112661894D01*
X162160004Y-112536206D01*
X162311206Y-112385004D01*
X162436894Y-112212009D01*
X162533972Y-112021483D01*
X162600049Y-111818116D01*
X162633500Y-111606916D01*
X162633500Y-111393084D01*
X162600049Y-111181884D01*
X162533972Y-110978517D01*
X162533972Y-110978516D01*
X162478495Y-110869638D01*
X162436894Y-110787991D01*
X162311206Y-110614996D01*
X162160004Y-110463794D01*
X161987009Y-110338106D01*
X161796483Y-110241027D01*
X161796480Y-110241026D01*
X161593117Y-110174951D01*
X161487516Y-110158225D01*
X161381916Y-110141500D01*
X161168084Y-110141500D01*
X161097684Y-110152650D01*
X160956882Y-110174951D01*
X160753519Y-110241026D01*
X160753516Y-110241027D01*
X160562990Y-110338106D01*
X160389993Y-110463796D01*
X160238796Y-110614993D01*
X160113105Y-110787991D01*
X160110727Y-110791873D01*
X160058914Y-110838748D01*
X159989984Y-110850169D01*
X159925822Y-110822512D01*
X159899273Y-110791873D01*
X159896894Y-110787991D01*
X159860778Y-110738282D01*
X159771206Y-110614996D01*
X159620004Y-110463794D01*
X159447009Y-110338106D01*
X159256483Y-110241027D01*
X159256480Y-110241026D01*
X159053117Y-110174951D01*
X158947516Y-110158225D01*
X158841916Y-110141500D01*
X158628084Y-110141500D01*
X158557684Y-110152650D01*
X158416882Y-110174951D01*
X158213519Y-110241026D01*
X158213516Y-110241027D01*
X158022990Y-110338106D01*
X157849993Y-110463796D01*
X157698796Y-110614993D01*
X157573105Y-110787991D01*
X157570727Y-110791873D01*
X157518914Y-110838748D01*
X157449984Y-110850169D01*
X157385822Y-110822512D01*
X157359273Y-110791873D01*
X157356894Y-110787991D01*
X157320778Y-110738282D01*
X157231206Y-110614996D01*
X157080004Y-110463794D01*
X156907009Y-110338106D01*
X156716483Y-110241027D01*
X156716480Y-110241026D01*
X156513117Y-110174951D01*
X156407516Y-110158225D01*
X156301916Y-110141500D01*
X156088084Y-110141500D01*
X156017684Y-110152650D01*
X155876882Y-110174951D01*
X155673519Y-110241026D01*
X155673516Y-110241027D01*
X155482990Y-110338106D01*
X155309993Y-110463796D01*
X155158796Y-110614993D01*
X155033105Y-110787991D01*
X155030727Y-110791873D01*
X154978914Y-110838748D01*
X154909984Y-110850169D01*
X154845822Y-110822512D01*
X154819273Y-110791873D01*
X154816894Y-110787991D01*
X154780778Y-110738282D01*
X154691206Y-110614996D01*
X154540004Y-110463794D01*
X154367009Y-110338106D01*
X154176483Y-110241027D01*
X154176480Y-110241026D01*
X153973117Y-110174951D01*
X153867516Y-110158225D01*
X153761916Y-110141500D01*
X153548084Y-110141500D01*
X153477684Y-110152650D01*
X153336882Y-110174951D01*
X153133519Y-110241026D01*
X153133516Y-110241027D01*
X152942990Y-110338106D01*
X152769993Y-110463796D01*
X152618796Y-110614993D01*
X152493105Y-110787991D01*
X152490727Y-110791873D01*
X152438914Y-110838748D01*
X152369984Y-110850169D01*
X152305822Y-110822512D01*
X152279273Y-110791873D01*
X152276894Y-110787991D01*
X152240778Y-110738282D01*
X152151206Y-110614996D01*
X152000004Y-110463794D01*
X151827009Y-110338106D01*
X151636483Y-110241027D01*
X151636480Y-110241026D01*
X151433117Y-110174951D01*
X151327516Y-110158225D01*
X151221916Y-110141500D01*
X151008084Y-110141500D01*
X150937684Y-110152650D01*
X150796882Y-110174951D01*
X150593519Y-110241026D01*
X150593516Y-110241027D01*
X150402990Y-110338106D01*
X150229997Y-110463793D01*
X150124818Y-110568972D01*
X150063495Y-110602456D01*
X149993803Y-110597472D01*
X149937870Y-110555600D01*
X149920958Y-110524629D01*
X149875889Y-110403796D01*
X149788261Y-110286739D01*
X149671204Y-110199111D01*
X149534203Y-110148011D01*
X149473654Y-110141500D01*
X149473638Y-110141500D01*
X147676362Y-110141500D01*
X147676345Y-110141500D01*
X147615797Y-110148011D01*
X147615795Y-110148011D01*
X147478795Y-110199111D01*
X147361739Y-110286739D01*
X147274111Y-110403795D01*
X147223011Y-110540795D01*
X147223011Y-110540797D01*
X147216500Y-110601345D01*
X144522555Y-110601345D01*
X144385004Y-110463794D01*
X144212009Y-110338106D01*
X144021483Y-110241027D01*
X144021480Y-110241026D01*
X143818117Y-110174951D01*
X143712516Y-110158225D01*
X143606916Y-110141500D01*
X143393084Y-110141500D01*
X143322684Y-110152650D01*
X143181882Y-110174951D01*
X142978519Y-110241026D01*
X142978516Y-110241027D01*
X142787990Y-110338106D01*
X142614993Y-110463796D01*
X142463796Y-110614993D01*
X142338103Y-110787994D01*
X142335709Y-110792693D01*
X142287731Y-110843485D01*
X142219908Y-110860275D01*
X142153775Y-110837732D01*
X142117804Y-110796215D01*
X142117171Y-110796604D01*
X142114826Y-110792778D01*
X142114743Y-110792682D01*
X142114624Y-110792449D01*
X142075270Y-110738282D01*
X142075269Y-110738282D01*
X141442962Y-111370590D01*
X141425925Y-111307007D01*
X141360099Y-111192993D01*
X141267007Y-111099901D01*
X141152993Y-111034075D01*
X141089409Y-111017037D01*
X141721716Y-110384728D01*
X141667550Y-110345375D01*
X141478217Y-110248904D01*
X141276129Y-110183242D01*
X141066246Y-110150000D01*
X140853754Y-110150000D01*
X140643872Y-110183242D01*
X140643869Y-110183242D01*
X140441782Y-110248904D01*
X140252439Y-110345380D01*
X140198282Y-110384727D01*
X140198282Y-110384728D01*
X140830591Y-111017037D01*
X140767007Y-111034075D01*
X140652993Y-111099901D01*
X140559901Y-111192993D01*
X140494075Y-111307007D01*
X140477037Y-111370591D01*
X139844728Y-110738282D01*
X139844727Y-110738282D01*
X139805380Y-110792440D01*
X139800483Y-110802051D01*
X139752506Y-110852845D01*
X139684684Y-110869638D01*
X139618550Y-110847098D01*
X139579516Y-110802048D01*
X139574626Y-110792452D01*
X139535270Y-110738282D01*
X139535269Y-110738282D01*
X138902962Y-111370590D01*
X138885925Y-111307007D01*
X138820099Y-111192993D01*
X138727007Y-111099901D01*
X138612993Y-111034075D01*
X138549409Y-111017037D01*
X139181716Y-110384728D01*
X139127550Y-110345375D01*
X138938217Y-110248904D01*
X138736129Y-110183242D01*
X138526246Y-110150000D01*
X138313754Y-110150000D01*
X138103872Y-110183242D01*
X138103869Y-110183242D01*
X137901782Y-110248904D01*
X137712439Y-110345380D01*
X137658282Y-110384727D01*
X137658282Y-110384728D01*
X138290591Y-111017037D01*
X138227007Y-111034075D01*
X138112993Y-111099901D01*
X138019901Y-111192993D01*
X137954075Y-111307007D01*
X137937037Y-111370591D01*
X137304728Y-110738282D01*
X137304727Y-110738282D01*
X137265380Y-110792440D01*
X137265374Y-110792449D01*
X137265246Y-110792702D01*
X137265172Y-110792780D01*
X137262838Y-110796590D01*
X137262036Y-110796099D01*
X137217264Y-110843490D01*
X137149441Y-110860275D01*
X137083309Y-110837728D01*
X137044283Y-110792680D01*
X137041894Y-110787991D01*
X136916206Y-110614996D01*
X136765004Y-110463794D01*
X136592009Y-110338106D01*
X136401483Y-110241027D01*
X136401480Y-110241026D01*
X136198117Y-110174951D01*
X136092516Y-110158225D01*
X135986916Y-110141500D01*
X135773084Y-110141500D01*
X135702684Y-110152650D01*
X135561882Y-110174951D01*
X135358519Y-110241026D01*
X135358516Y-110241027D01*
X135167990Y-110338106D01*
X134994993Y-110463796D01*
X134843796Y-110614993D01*
X134718105Y-110787991D01*
X134715727Y-110791873D01*
X134663914Y-110838748D01*
X134594984Y-110850169D01*
X134530822Y-110822512D01*
X134504273Y-110791873D01*
X134501894Y-110787991D01*
X134465778Y-110738282D01*
X134376206Y-110614996D01*
X134225004Y-110463794D01*
X134052009Y-110338106D01*
X133861483Y-110241027D01*
X133861480Y-110241026D01*
X133658117Y-110174951D01*
X133552516Y-110158225D01*
X133446916Y-110141500D01*
X133233084Y-110141500D01*
X133162684Y-110152650D01*
X133021882Y-110174951D01*
X132818519Y-110241026D01*
X132818516Y-110241027D01*
X132627990Y-110338106D01*
X132454993Y-110463796D01*
X132303796Y-110614993D01*
X132178105Y-110787991D01*
X132175727Y-110791873D01*
X132123914Y-110838748D01*
X132054984Y-110850169D01*
X131990822Y-110822512D01*
X131964273Y-110791873D01*
X131961894Y-110787991D01*
X131925778Y-110738282D01*
X131836206Y-110614996D01*
X131685004Y-110463794D01*
X131512009Y-110338106D01*
X131321483Y-110241027D01*
X131321480Y-110241026D01*
X131118117Y-110174951D01*
X131012516Y-110158225D01*
X130906916Y-110141500D01*
X130693084Y-110141500D01*
X130622684Y-110152650D01*
X130481882Y-110174951D01*
X130278519Y-110241026D01*
X130278516Y-110241027D01*
X130087990Y-110338106D01*
X129914993Y-110463796D01*
X129763796Y-110614993D01*
X129638105Y-110787991D01*
X129635727Y-110791873D01*
X129583914Y-110838748D01*
X129514984Y-110850169D01*
X129450822Y-110822512D01*
X129424273Y-110791873D01*
X129421894Y-110787991D01*
X129385778Y-110738282D01*
X129296206Y-110614996D01*
X129145004Y-110463794D01*
X128972009Y-110338106D01*
X128781483Y-110241027D01*
X128781480Y-110241026D01*
X128578117Y-110174951D01*
X128472516Y-110158225D01*
X128366916Y-110141500D01*
X128153084Y-110141500D01*
X128082684Y-110152650D01*
X127941882Y-110174951D01*
X127738519Y-110241026D01*
X127738516Y-110241027D01*
X127547990Y-110338106D01*
X127374997Y-110463793D01*
X127269818Y-110568972D01*
X127208495Y-110602456D01*
X127138803Y-110597472D01*
X127082870Y-110555600D01*
X127065958Y-110524629D01*
X127020889Y-110403796D01*
X126933261Y-110286739D01*
X126816204Y-110199111D01*
X126679203Y-110148011D01*
X126618654Y-110141500D01*
X126618638Y-110141500D01*
X124821362Y-110141500D01*
X124821345Y-110141500D01*
X124760797Y-110148011D01*
X124760795Y-110148011D01*
X124623795Y-110199111D01*
X124506739Y-110286739D01*
X124419111Y-110403795D01*
X124368011Y-110540795D01*
X124368011Y-110540797D01*
X124361500Y-110601345D01*
X88725500Y-110601345D01*
X88725500Y-97823547D01*
X88745185Y-97756508D01*
X88797989Y-97710753D01*
X88849214Y-97699547D01*
X198025000Y-97450000D01*
X198025001Y-97449999D01*
X198047709Y-97440563D01*
X198048522Y-97442520D01*
X198074504Y-97428334D01*
X198100862Y-97425500D01*
X198413970Y-97425500D01*
X198466766Y-97437301D01*
G37*
%TD.AperFunction*%
%TD*%
M02*
