%TF.GenerationSoftware,KiCad,Pcbnew,10.0.6*%
%TF.CreationDate,2026-09-04T14:44:53-04:00*%
%TF.ProjectId,MorgansMetronome,4d6f7267-616e-4734-9d65-74726f6e6f6d,rev?*%
%TF.SameCoordinates,Original*%
%TF.FileFunction,Legend,Top*%
%TF.FilePolarity,Positive*%
%FSLAX46Y46*%
G04 Gerber Fmt 4.6, Leading zero omitted, Abs format (unit mm)*
G04 Created by KiCad (PCBNEW 10.0.6) date 2026-09-04 14:44:53*
%MOMM*%
%LPD*%
G01*
G04 APERTURE LIST*
%ADD10C,0.150000*%
%ADD11C,0.300000*%
%ADD12C,0.120000*%
G04 APERTURE END LIST*
D10*
X98414160Y-176472200D02*
X98557017Y-176519819D01*
X98557017Y-176519819D02*
X98795112Y-176519819D01*
X98795112Y-176519819D02*
X98890350Y-176472200D01*
X98890350Y-176472200D02*
X98937969Y-176424580D01*
X98937969Y-176424580D02*
X98985588Y-176329342D01*
X98985588Y-176329342D02*
X98985588Y-176234104D01*
X98985588Y-176234104D02*
X98937969Y-176138866D01*
X98937969Y-176138866D02*
X98890350Y-176091247D01*
X98890350Y-176091247D02*
X98795112Y-176043628D01*
X98795112Y-176043628D02*
X98604636Y-175996009D01*
X98604636Y-175996009D02*
X98509398Y-175948390D01*
X98509398Y-175948390D02*
X98461779Y-175900771D01*
X98461779Y-175900771D02*
X98414160Y-175805533D01*
X98414160Y-175805533D02*
X98414160Y-175710295D01*
X98414160Y-175710295D02*
X98461779Y-175615057D01*
X98461779Y-175615057D02*
X98509398Y-175567438D01*
X98509398Y-175567438D02*
X98604636Y-175519819D01*
X98604636Y-175519819D02*
X98842731Y-175519819D01*
X98842731Y-175519819D02*
X98985588Y-175567438D01*
X99271303Y-175519819D02*
X99842731Y-175519819D01*
X99557017Y-176519819D02*
X99557017Y-175519819D01*
X100128446Y-176234104D02*
X100604636Y-176234104D01*
X100033208Y-176519819D02*
X100366541Y-175519819D01*
X100366541Y-175519819D02*
X100699874Y-176519819D01*
X101604636Y-176519819D02*
X101271303Y-176043628D01*
X101033208Y-176519819D02*
X101033208Y-175519819D01*
X101033208Y-175519819D02*
X101414160Y-175519819D01*
X101414160Y-175519819D02*
X101509398Y-175567438D01*
X101509398Y-175567438D02*
X101557017Y-175615057D01*
X101557017Y-175615057D02*
X101604636Y-175710295D01*
X101604636Y-175710295D02*
X101604636Y-175853152D01*
X101604636Y-175853152D02*
X101557017Y-175948390D01*
X101557017Y-175948390D02*
X101509398Y-175996009D01*
X101509398Y-175996009D02*
X101414160Y-176043628D01*
X101414160Y-176043628D02*
X101033208Y-176043628D01*
X101890351Y-175519819D02*
X102461779Y-175519819D01*
X102176065Y-176519819D02*
X102176065Y-175519819D01*
X103509398Y-175472200D02*
X102652256Y-176757914D01*
X103795113Y-176472200D02*
X103937970Y-176519819D01*
X103937970Y-176519819D02*
X104176065Y-176519819D01*
X104176065Y-176519819D02*
X104271303Y-176472200D01*
X104271303Y-176472200D02*
X104318922Y-176424580D01*
X104318922Y-176424580D02*
X104366541Y-176329342D01*
X104366541Y-176329342D02*
X104366541Y-176234104D01*
X104366541Y-176234104D02*
X104318922Y-176138866D01*
X104318922Y-176138866D02*
X104271303Y-176091247D01*
X104271303Y-176091247D02*
X104176065Y-176043628D01*
X104176065Y-176043628D02*
X103985589Y-175996009D01*
X103985589Y-175996009D02*
X103890351Y-175948390D01*
X103890351Y-175948390D02*
X103842732Y-175900771D01*
X103842732Y-175900771D02*
X103795113Y-175805533D01*
X103795113Y-175805533D02*
X103795113Y-175710295D01*
X103795113Y-175710295D02*
X103842732Y-175615057D01*
X103842732Y-175615057D02*
X103890351Y-175567438D01*
X103890351Y-175567438D02*
X103985589Y-175519819D01*
X103985589Y-175519819D02*
X104223684Y-175519819D01*
X104223684Y-175519819D02*
X104366541Y-175567438D01*
X104652256Y-175519819D02*
X105223684Y-175519819D01*
X104937970Y-176519819D02*
X104937970Y-175519819D01*
X105747494Y-175519819D02*
X105937970Y-175519819D01*
X105937970Y-175519819D02*
X106033208Y-175567438D01*
X106033208Y-175567438D02*
X106128446Y-175662676D01*
X106128446Y-175662676D02*
X106176065Y-175853152D01*
X106176065Y-175853152D02*
X106176065Y-176186485D01*
X106176065Y-176186485D02*
X106128446Y-176376961D01*
X106128446Y-176376961D02*
X106033208Y-176472200D01*
X106033208Y-176472200D02*
X105937970Y-176519819D01*
X105937970Y-176519819D02*
X105747494Y-176519819D01*
X105747494Y-176519819D02*
X105652256Y-176472200D01*
X105652256Y-176472200D02*
X105557018Y-176376961D01*
X105557018Y-176376961D02*
X105509399Y-176186485D01*
X105509399Y-176186485D02*
X105509399Y-175853152D01*
X105509399Y-175853152D02*
X105557018Y-175662676D01*
X105557018Y-175662676D02*
X105652256Y-175567438D01*
X105652256Y-175567438D02*
X105747494Y-175519819D01*
X106604637Y-176519819D02*
X106604637Y-175519819D01*
X106604637Y-175519819D02*
X106985589Y-175519819D01*
X106985589Y-175519819D02*
X107080827Y-175567438D01*
X107080827Y-175567438D02*
X107128446Y-175615057D01*
X107128446Y-175615057D02*
X107176065Y-175710295D01*
X107176065Y-175710295D02*
X107176065Y-175853152D01*
X107176065Y-175853152D02*
X107128446Y-175948390D01*
X107128446Y-175948390D02*
X107080827Y-175996009D01*
X107080827Y-175996009D02*
X106985589Y-176043628D01*
X106985589Y-176043628D02*
X106604637Y-176043628D01*
X116395112Y-175871009D02*
X116537969Y-175918628D01*
X116537969Y-175918628D02*
X116585588Y-175966247D01*
X116585588Y-175966247D02*
X116633207Y-176061485D01*
X116633207Y-176061485D02*
X116633207Y-176204342D01*
X116633207Y-176204342D02*
X116585588Y-176299580D01*
X116585588Y-176299580D02*
X116537969Y-176347200D01*
X116537969Y-176347200D02*
X116442731Y-176394819D01*
X116442731Y-176394819D02*
X116061779Y-176394819D01*
X116061779Y-176394819D02*
X116061779Y-175394819D01*
X116061779Y-175394819D02*
X116395112Y-175394819D01*
X116395112Y-175394819D02*
X116490350Y-175442438D01*
X116490350Y-175442438D02*
X116537969Y-175490057D01*
X116537969Y-175490057D02*
X116585588Y-175585295D01*
X116585588Y-175585295D02*
X116585588Y-175680533D01*
X116585588Y-175680533D02*
X116537969Y-175775771D01*
X116537969Y-175775771D02*
X116490350Y-175823390D01*
X116490350Y-175823390D02*
X116395112Y-175871009D01*
X116395112Y-175871009D02*
X116061779Y-175871009D01*
X117061779Y-175871009D02*
X117395112Y-175871009D01*
X117537969Y-176394819D02*
X117061779Y-176394819D01*
X117061779Y-176394819D02*
X117061779Y-175394819D01*
X117061779Y-175394819D02*
X117537969Y-175394819D01*
X117918922Y-176109104D02*
X118395112Y-176109104D01*
X117823684Y-176394819D02*
X118157017Y-175394819D01*
X118157017Y-175394819D02*
X118490350Y-176394819D01*
X118680827Y-175394819D02*
X119252255Y-175394819D01*
X118966541Y-176394819D02*
X118966541Y-175394819D01*
X120347494Y-176394819D02*
X120347494Y-175394819D01*
X120347494Y-175394819D02*
X120728446Y-175394819D01*
X120728446Y-175394819D02*
X120823684Y-175442438D01*
X120823684Y-175442438D02*
X120871303Y-175490057D01*
X120871303Y-175490057D02*
X120918922Y-175585295D01*
X120918922Y-175585295D02*
X120918922Y-175728152D01*
X120918922Y-175728152D02*
X120871303Y-175823390D01*
X120871303Y-175823390D02*
X120823684Y-175871009D01*
X120823684Y-175871009D02*
X120728446Y-175918628D01*
X120728446Y-175918628D02*
X120347494Y-175918628D01*
X121299875Y-176109104D02*
X121776065Y-176109104D01*
X121204637Y-176394819D02*
X121537970Y-175394819D01*
X121537970Y-175394819D02*
X121871303Y-176394819D01*
X122061780Y-175394819D02*
X122633208Y-175394819D01*
X122347494Y-176394819D02*
X122347494Y-175394819D01*
X122823685Y-175394819D02*
X123395113Y-175394819D01*
X123109399Y-176394819D02*
X123109399Y-175394819D01*
X123728447Y-175871009D02*
X124061780Y-175871009D01*
X124204637Y-176394819D02*
X123728447Y-176394819D01*
X123728447Y-176394819D02*
X123728447Y-175394819D01*
X123728447Y-175394819D02*
X124204637Y-175394819D01*
X125204637Y-176394819D02*
X124871304Y-175918628D01*
X124633209Y-176394819D02*
X124633209Y-175394819D01*
X124633209Y-175394819D02*
X125014161Y-175394819D01*
X125014161Y-175394819D02*
X125109399Y-175442438D01*
X125109399Y-175442438D02*
X125157018Y-175490057D01*
X125157018Y-175490057D02*
X125204637Y-175585295D01*
X125204637Y-175585295D02*
X125204637Y-175728152D01*
X125204637Y-175728152D02*
X125157018Y-175823390D01*
X125157018Y-175823390D02*
X125109399Y-175871009D01*
X125109399Y-175871009D02*
X125014161Y-175918628D01*
X125014161Y-175918628D02*
X124633209Y-175918628D01*
X125633209Y-176394819D02*
X125633209Y-175394819D01*
X125633209Y-175394819D02*
X126204637Y-176394819D01*
X126204637Y-176394819D02*
X126204637Y-175394819D01*
X137487969Y-182644819D02*
X137011779Y-182644819D01*
X137011779Y-182644819D02*
X137011779Y-181644819D01*
X137821303Y-182121009D02*
X138154636Y-182121009D01*
X138297493Y-182644819D02*
X137821303Y-182644819D01*
X137821303Y-182644819D02*
X137821303Y-181644819D01*
X137821303Y-181644819D02*
X138297493Y-181644819D01*
X138726065Y-182644819D02*
X138726065Y-181644819D01*
X138726065Y-181644819D02*
X138964160Y-181644819D01*
X138964160Y-181644819D02*
X139107017Y-181692438D01*
X139107017Y-181692438D02*
X139202255Y-181787676D01*
X139202255Y-181787676D02*
X139249874Y-181882914D01*
X139249874Y-181882914D02*
X139297493Y-182073390D01*
X139297493Y-182073390D02*
X139297493Y-182216247D01*
X139297493Y-182216247D02*
X139249874Y-182406723D01*
X139249874Y-182406723D02*
X139202255Y-182501961D01*
X139202255Y-182501961D02*
X139107017Y-182597200D01*
X139107017Y-182597200D02*
X138964160Y-182644819D01*
X138964160Y-182644819D02*
X138726065Y-182644819D01*
X155095112Y-184046009D02*
X155237969Y-184093628D01*
X155237969Y-184093628D02*
X155285588Y-184141247D01*
X155285588Y-184141247D02*
X155333207Y-184236485D01*
X155333207Y-184236485D02*
X155333207Y-184379342D01*
X155333207Y-184379342D02*
X155285588Y-184474580D01*
X155285588Y-184474580D02*
X155237969Y-184522200D01*
X155237969Y-184522200D02*
X155142731Y-184569819D01*
X155142731Y-184569819D02*
X154761779Y-184569819D01*
X154761779Y-184569819D02*
X154761779Y-183569819D01*
X154761779Y-183569819D02*
X155095112Y-183569819D01*
X155095112Y-183569819D02*
X155190350Y-183617438D01*
X155190350Y-183617438D02*
X155237969Y-183665057D01*
X155237969Y-183665057D02*
X155285588Y-183760295D01*
X155285588Y-183760295D02*
X155285588Y-183855533D01*
X155285588Y-183855533D02*
X155237969Y-183950771D01*
X155237969Y-183950771D02*
X155190350Y-183998390D01*
X155190350Y-183998390D02*
X155095112Y-184046009D01*
X155095112Y-184046009D02*
X154761779Y-184046009D01*
X155761779Y-183569819D02*
X155761779Y-184379342D01*
X155761779Y-184379342D02*
X155809398Y-184474580D01*
X155809398Y-184474580D02*
X155857017Y-184522200D01*
X155857017Y-184522200D02*
X155952255Y-184569819D01*
X155952255Y-184569819D02*
X156142731Y-184569819D01*
X156142731Y-184569819D02*
X156237969Y-184522200D01*
X156237969Y-184522200D02*
X156285588Y-184474580D01*
X156285588Y-184474580D02*
X156333207Y-184379342D01*
X156333207Y-184379342D02*
X156333207Y-183569819D01*
X156714160Y-183569819D02*
X157380826Y-183569819D01*
X157380826Y-183569819D02*
X156714160Y-184569819D01*
X156714160Y-184569819D02*
X157380826Y-184569819D01*
X157666541Y-183569819D02*
X158333207Y-183569819D01*
X158333207Y-183569819D02*
X157666541Y-184569819D01*
X157666541Y-184569819D02*
X158333207Y-184569819D01*
X158714160Y-184046009D02*
X159047493Y-184046009D01*
X159190350Y-184569819D02*
X158714160Y-184569819D01*
X158714160Y-184569819D02*
X158714160Y-183569819D01*
X158714160Y-183569819D02*
X159190350Y-183569819D01*
X160190350Y-184569819D02*
X159857017Y-184093628D01*
X159618922Y-184569819D02*
X159618922Y-183569819D01*
X159618922Y-183569819D02*
X159999874Y-183569819D01*
X159999874Y-183569819D02*
X160095112Y-183617438D01*
X160095112Y-183617438D02*
X160142731Y-183665057D01*
X160142731Y-183665057D02*
X160190350Y-183760295D01*
X160190350Y-183760295D02*
X160190350Y-183903152D01*
X160190350Y-183903152D02*
X160142731Y-183998390D01*
X160142731Y-183998390D02*
X160095112Y-184046009D01*
X160095112Y-184046009D02*
X159999874Y-184093628D01*
X159999874Y-184093628D02*
X159618922Y-184093628D01*
X172995112Y-180021009D02*
X173137969Y-180068628D01*
X173137969Y-180068628D02*
X173185588Y-180116247D01*
X173185588Y-180116247D02*
X173233207Y-180211485D01*
X173233207Y-180211485D02*
X173233207Y-180354342D01*
X173233207Y-180354342D02*
X173185588Y-180449580D01*
X173185588Y-180449580D02*
X173137969Y-180497200D01*
X173137969Y-180497200D02*
X173042731Y-180544819D01*
X173042731Y-180544819D02*
X172661779Y-180544819D01*
X172661779Y-180544819D02*
X172661779Y-179544819D01*
X172661779Y-179544819D02*
X172995112Y-179544819D01*
X172995112Y-179544819D02*
X173090350Y-179592438D01*
X173090350Y-179592438D02*
X173137969Y-179640057D01*
X173137969Y-179640057D02*
X173185588Y-179735295D01*
X173185588Y-179735295D02*
X173185588Y-179830533D01*
X173185588Y-179830533D02*
X173137969Y-179925771D01*
X173137969Y-179925771D02*
X173090350Y-179973390D01*
X173090350Y-179973390D02*
X172995112Y-180021009D01*
X172995112Y-180021009D02*
X172661779Y-180021009D01*
X173661779Y-180544819D02*
X173661779Y-179544819D01*
X173661779Y-179544819D02*
X174042731Y-179544819D01*
X174042731Y-179544819D02*
X174137969Y-179592438D01*
X174137969Y-179592438D02*
X174185588Y-179640057D01*
X174185588Y-179640057D02*
X174233207Y-179735295D01*
X174233207Y-179735295D02*
X174233207Y-179878152D01*
X174233207Y-179878152D02*
X174185588Y-179973390D01*
X174185588Y-179973390D02*
X174137969Y-180021009D01*
X174137969Y-180021009D02*
X174042731Y-180068628D01*
X174042731Y-180068628D02*
X173661779Y-180068628D01*
X174661779Y-180544819D02*
X174661779Y-179544819D01*
X174661779Y-179544819D02*
X174995112Y-180259104D01*
X174995112Y-180259104D02*
X175328445Y-179544819D01*
X175328445Y-179544819D02*
X175328445Y-180544819D01*
X176518922Y-180259104D02*
X176995112Y-180259104D01*
X176423684Y-180544819D02*
X176757017Y-179544819D01*
X176757017Y-179544819D02*
X177090350Y-180544819D01*
X177423684Y-180544819D02*
X177423684Y-179544819D01*
X177423684Y-179544819D02*
X177661779Y-179544819D01*
X177661779Y-179544819D02*
X177804636Y-179592438D01*
X177804636Y-179592438D02*
X177899874Y-179687676D01*
X177899874Y-179687676D02*
X177947493Y-179782914D01*
X177947493Y-179782914D02*
X177995112Y-179973390D01*
X177995112Y-179973390D02*
X177995112Y-180116247D01*
X177995112Y-180116247D02*
X177947493Y-180306723D01*
X177947493Y-180306723D02*
X177899874Y-180401961D01*
X177899874Y-180401961D02*
X177804636Y-180497200D01*
X177804636Y-180497200D02*
X177661779Y-180544819D01*
X177661779Y-180544819D02*
X177423684Y-180544819D01*
X178709398Y-179544819D02*
X178709398Y-180259104D01*
X178709398Y-180259104D02*
X178661779Y-180401961D01*
X178661779Y-180401961D02*
X178566541Y-180497200D01*
X178566541Y-180497200D02*
X178423684Y-180544819D01*
X178423684Y-180544819D02*
X178328446Y-180544819D01*
X179185589Y-179544819D02*
X179185589Y-180354342D01*
X179185589Y-180354342D02*
X179233208Y-180449580D01*
X179233208Y-180449580D02*
X179280827Y-180497200D01*
X179280827Y-180497200D02*
X179376065Y-180544819D01*
X179376065Y-180544819D02*
X179566541Y-180544819D01*
X179566541Y-180544819D02*
X179661779Y-180497200D01*
X179661779Y-180497200D02*
X179709398Y-180449580D01*
X179709398Y-180449580D02*
X179757017Y-180354342D01*
X179757017Y-180354342D02*
X179757017Y-179544819D01*
X180185589Y-180497200D02*
X180328446Y-180544819D01*
X180328446Y-180544819D02*
X180566541Y-180544819D01*
X180566541Y-180544819D02*
X180661779Y-180497200D01*
X180661779Y-180497200D02*
X180709398Y-180449580D01*
X180709398Y-180449580D02*
X180757017Y-180354342D01*
X180757017Y-180354342D02*
X180757017Y-180259104D01*
X180757017Y-180259104D02*
X180709398Y-180163866D01*
X180709398Y-180163866D02*
X180661779Y-180116247D01*
X180661779Y-180116247D02*
X180566541Y-180068628D01*
X180566541Y-180068628D02*
X180376065Y-180021009D01*
X180376065Y-180021009D02*
X180280827Y-179973390D01*
X180280827Y-179973390D02*
X180233208Y-179925771D01*
X180233208Y-179925771D02*
X180185589Y-179830533D01*
X180185589Y-179830533D02*
X180185589Y-179735295D01*
X180185589Y-179735295D02*
X180233208Y-179640057D01*
X180233208Y-179640057D02*
X180280827Y-179592438D01*
X180280827Y-179592438D02*
X180376065Y-179544819D01*
X180376065Y-179544819D02*
X180614160Y-179544819D01*
X180614160Y-179544819D02*
X180757017Y-179592438D01*
X181042732Y-179544819D02*
X181614160Y-179544819D01*
X181328446Y-180544819D02*
X181328446Y-179544819D01*
X181947494Y-180021009D02*
X182280827Y-180021009D01*
X182423684Y-180544819D02*
X181947494Y-180544819D01*
X181947494Y-180544819D02*
X181947494Y-179544819D01*
X181947494Y-179544819D02*
X182423684Y-179544819D01*
X183423684Y-180544819D02*
X183090351Y-180068628D01*
X182852256Y-180544819D02*
X182852256Y-179544819D01*
X182852256Y-179544819D02*
X183233208Y-179544819D01*
X183233208Y-179544819D02*
X183328446Y-179592438D01*
X183328446Y-179592438D02*
X183376065Y-179640057D01*
X183376065Y-179640057D02*
X183423684Y-179735295D01*
X183423684Y-179735295D02*
X183423684Y-179878152D01*
X183423684Y-179878152D02*
X183376065Y-179973390D01*
X183376065Y-179973390D02*
X183328446Y-180021009D01*
X183328446Y-180021009D02*
X183233208Y-180068628D01*
X183233208Y-180068628D02*
X182852256Y-180068628D01*
D11*
X92398558Y-104089638D02*
X92398558Y-102089638D01*
X92398558Y-102089638D02*
X93065225Y-103518209D01*
X93065225Y-103518209D02*
X93731891Y-102089638D01*
X93731891Y-102089638D02*
X93731891Y-104089638D01*
X95065224Y-102089638D02*
X95446177Y-102089638D01*
X95446177Y-102089638D02*
X95636653Y-102184876D01*
X95636653Y-102184876D02*
X95827129Y-102375352D01*
X95827129Y-102375352D02*
X95922367Y-102756304D01*
X95922367Y-102756304D02*
X95922367Y-103422971D01*
X95922367Y-103422971D02*
X95827129Y-103803923D01*
X95827129Y-103803923D02*
X95636653Y-103994400D01*
X95636653Y-103994400D02*
X95446177Y-104089638D01*
X95446177Y-104089638D02*
X95065224Y-104089638D01*
X95065224Y-104089638D02*
X94874748Y-103994400D01*
X94874748Y-103994400D02*
X94684272Y-103803923D01*
X94684272Y-103803923D02*
X94589034Y-103422971D01*
X94589034Y-103422971D02*
X94589034Y-102756304D01*
X94589034Y-102756304D02*
X94684272Y-102375352D01*
X94684272Y-102375352D02*
X94874748Y-102184876D01*
X94874748Y-102184876D02*
X95065224Y-102089638D01*
X97922367Y-104089638D02*
X97255700Y-103137257D01*
X96779510Y-104089638D02*
X96779510Y-102089638D01*
X96779510Y-102089638D02*
X97541415Y-102089638D01*
X97541415Y-102089638D02*
X97731891Y-102184876D01*
X97731891Y-102184876D02*
X97827129Y-102280114D01*
X97827129Y-102280114D02*
X97922367Y-102470590D01*
X97922367Y-102470590D02*
X97922367Y-102756304D01*
X97922367Y-102756304D02*
X97827129Y-102946780D01*
X97827129Y-102946780D02*
X97731891Y-103042019D01*
X97731891Y-103042019D02*
X97541415Y-103137257D01*
X97541415Y-103137257D02*
X96779510Y-103137257D01*
X99827129Y-102184876D02*
X99636653Y-102089638D01*
X99636653Y-102089638D02*
X99350939Y-102089638D01*
X99350939Y-102089638D02*
X99065224Y-102184876D01*
X99065224Y-102184876D02*
X98874748Y-102375352D01*
X98874748Y-102375352D02*
X98779510Y-102565828D01*
X98779510Y-102565828D02*
X98684272Y-102946780D01*
X98684272Y-102946780D02*
X98684272Y-103232495D01*
X98684272Y-103232495D02*
X98779510Y-103613447D01*
X98779510Y-103613447D02*
X98874748Y-103803923D01*
X98874748Y-103803923D02*
X99065224Y-103994400D01*
X99065224Y-103994400D02*
X99350939Y-104089638D01*
X99350939Y-104089638D02*
X99541415Y-104089638D01*
X99541415Y-104089638D02*
X99827129Y-103994400D01*
X99827129Y-103994400D02*
X99922367Y-103899161D01*
X99922367Y-103899161D02*
X99922367Y-103232495D01*
X99922367Y-103232495D02*
X99541415Y-103232495D01*
X100684272Y-103518209D02*
X101636653Y-103518209D01*
X100493796Y-104089638D02*
X101160462Y-102089638D01*
X101160462Y-102089638D02*
X101827129Y-104089638D01*
X102493796Y-104089638D02*
X102493796Y-102089638D01*
X102493796Y-102089638D02*
X103636653Y-104089638D01*
X103636653Y-104089638D02*
X103636653Y-102089638D01*
X104684272Y-102089638D02*
X104493796Y-102470590D01*
X105446177Y-103994400D02*
X105731891Y-104089638D01*
X105731891Y-104089638D02*
X106208082Y-104089638D01*
X106208082Y-104089638D02*
X106398558Y-103994400D01*
X106398558Y-103994400D02*
X106493796Y-103899161D01*
X106493796Y-103899161D02*
X106589034Y-103708685D01*
X106589034Y-103708685D02*
X106589034Y-103518209D01*
X106589034Y-103518209D02*
X106493796Y-103327733D01*
X106493796Y-103327733D02*
X106398558Y-103232495D01*
X106398558Y-103232495D02*
X106208082Y-103137257D01*
X106208082Y-103137257D02*
X105827129Y-103042019D01*
X105827129Y-103042019D02*
X105636653Y-102946780D01*
X105636653Y-102946780D02*
X105541415Y-102851542D01*
X105541415Y-102851542D02*
X105446177Y-102661066D01*
X105446177Y-102661066D02*
X105446177Y-102470590D01*
X105446177Y-102470590D02*
X105541415Y-102280114D01*
X105541415Y-102280114D02*
X105636653Y-102184876D01*
X105636653Y-102184876D02*
X105827129Y-102089638D01*
X105827129Y-102089638D02*
X106303320Y-102089638D01*
X106303320Y-102089638D02*
X106589034Y-102184876D01*
X108969987Y-104089638D02*
X108969987Y-102089638D01*
X108969987Y-102089638D02*
X109636654Y-103518209D01*
X109636654Y-103518209D02*
X110303320Y-102089638D01*
X110303320Y-102089638D02*
X110303320Y-104089638D01*
X111255701Y-103042019D02*
X111922368Y-103042019D01*
X112208082Y-104089638D02*
X111255701Y-104089638D01*
X111255701Y-104089638D02*
X111255701Y-102089638D01*
X111255701Y-102089638D02*
X112208082Y-102089638D01*
X112779511Y-102089638D02*
X113922368Y-102089638D01*
X113350939Y-104089638D02*
X113350939Y-102089638D01*
X115731892Y-104089638D02*
X115065225Y-103137257D01*
X114589035Y-104089638D02*
X114589035Y-102089638D01*
X114589035Y-102089638D02*
X115350940Y-102089638D01*
X115350940Y-102089638D02*
X115541416Y-102184876D01*
X115541416Y-102184876D02*
X115636654Y-102280114D01*
X115636654Y-102280114D02*
X115731892Y-102470590D01*
X115731892Y-102470590D02*
X115731892Y-102756304D01*
X115731892Y-102756304D02*
X115636654Y-102946780D01*
X115636654Y-102946780D02*
X115541416Y-103042019D01*
X115541416Y-103042019D02*
X115350940Y-103137257D01*
X115350940Y-103137257D02*
X114589035Y-103137257D01*
X116969987Y-102089638D02*
X117350940Y-102089638D01*
X117350940Y-102089638D02*
X117541416Y-102184876D01*
X117541416Y-102184876D02*
X117731892Y-102375352D01*
X117731892Y-102375352D02*
X117827130Y-102756304D01*
X117827130Y-102756304D02*
X117827130Y-103422971D01*
X117827130Y-103422971D02*
X117731892Y-103803923D01*
X117731892Y-103803923D02*
X117541416Y-103994400D01*
X117541416Y-103994400D02*
X117350940Y-104089638D01*
X117350940Y-104089638D02*
X116969987Y-104089638D01*
X116969987Y-104089638D02*
X116779511Y-103994400D01*
X116779511Y-103994400D02*
X116589035Y-103803923D01*
X116589035Y-103803923D02*
X116493797Y-103422971D01*
X116493797Y-103422971D02*
X116493797Y-102756304D01*
X116493797Y-102756304D02*
X116589035Y-102375352D01*
X116589035Y-102375352D02*
X116779511Y-102184876D01*
X116779511Y-102184876D02*
X116969987Y-102089638D01*
X118684273Y-104089638D02*
X118684273Y-102089638D01*
X118684273Y-102089638D02*
X119827130Y-104089638D01*
X119827130Y-104089638D02*
X119827130Y-102089638D01*
X121160463Y-102089638D02*
X121541416Y-102089638D01*
X121541416Y-102089638D02*
X121731892Y-102184876D01*
X121731892Y-102184876D02*
X121922368Y-102375352D01*
X121922368Y-102375352D02*
X122017606Y-102756304D01*
X122017606Y-102756304D02*
X122017606Y-103422971D01*
X122017606Y-103422971D02*
X121922368Y-103803923D01*
X121922368Y-103803923D02*
X121731892Y-103994400D01*
X121731892Y-103994400D02*
X121541416Y-104089638D01*
X121541416Y-104089638D02*
X121160463Y-104089638D01*
X121160463Y-104089638D02*
X120969987Y-103994400D01*
X120969987Y-103994400D02*
X120779511Y-103803923D01*
X120779511Y-103803923D02*
X120684273Y-103422971D01*
X120684273Y-103422971D02*
X120684273Y-102756304D01*
X120684273Y-102756304D02*
X120779511Y-102375352D01*
X120779511Y-102375352D02*
X120969987Y-102184876D01*
X120969987Y-102184876D02*
X121160463Y-102089638D01*
X122874749Y-104089638D02*
X122874749Y-102089638D01*
X122874749Y-102089638D02*
X123541416Y-103518209D01*
X123541416Y-103518209D02*
X124208082Y-102089638D01*
X124208082Y-102089638D02*
X124208082Y-104089638D01*
X125160463Y-103042019D02*
X125827130Y-103042019D01*
X126112844Y-104089638D02*
X125160463Y-104089638D01*
X125160463Y-104089638D02*
X125160463Y-102089638D01*
X125160463Y-102089638D02*
X126112844Y-102089638D01*
X128303321Y-102756304D02*
X128779511Y-104089638D01*
X128779511Y-104089638D02*
X129255702Y-102756304D01*
X131065226Y-104089638D02*
X129922369Y-104089638D01*
X130493797Y-104089638D02*
X130493797Y-102089638D01*
X130493797Y-102089638D02*
X130303321Y-102375352D01*
X130303321Y-102375352D02*
X130112845Y-102565828D01*
X130112845Y-102565828D02*
X129922369Y-102661066D01*
X131922369Y-103899161D02*
X132017607Y-103994400D01*
X132017607Y-103994400D02*
X131922369Y-104089638D01*
X131922369Y-104089638D02*
X131827131Y-103994400D01*
X131827131Y-103994400D02*
X131922369Y-103899161D01*
X131922369Y-103899161D02*
X131922369Y-104089638D01*
X133255702Y-102089638D02*
X133446179Y-102089638D01*
X133446179Y-102089638D02*
X133636655Y-102184876D01*
X133636655Y-102184876D02*
X133731893Y-102280114D01*
X133731893Y-102280114D02*
X133827131Y-102470590D01*
X133827131Y-102470590D02*
X133922369Y-102851542D01*
X133922369Y-102851542D02*
X133922369Y-103327733D01*
X133922369Y-103327733D02*
X133827131Y-103708685D01*
X133827131Y-103708685D02*
X133731893Y-103899161D01*
X133731893Y-103899161D02*
X133636655Y-103994400D01*
X133636655Y-103994400D02*
X133446179Y-104089638D01*
X133446179Y-104089638D02*
X133255702Y-104089638D01*
X133255702Y-104089638D02*
X133065226Y-103994400D01*
X133065226Y-103994400D02*
X132969988Y-103899161D01*
X132969988Y-103899161D02*
X132874750Y-103708685D01*
X132874750Y-103708685D02*
X132779512Y-103327733D01*
X132779512Y-103327733D02*
X132779512Y-102851542D01*
X132779512Y-102851542D02*
X132874750Y-102470590D01*
X132874750Y-102470590D02*
X132969988Y-102280114D01*
X132969988Y-102280114D02*
X133065226Y-102184876D01*
X133065226Y-102184876D02*
X133255702Y-102089638D01*
D10*
X125091666Y-108029819D02*
X125091666Y-108744104D01*
X125091666Y-108744104D02*
X125044047Y-108886961D01*
X125044047Y-108886961D02*
X124948809Y-108982200D01*
X124948809Y-108982200D02*
X124805952Y-109029819D01*
X124805952Y-109029819D02*
X124710714Y-109029819D01*
X126091666Y-109029819D02*
X125520238Y-109029819D01*
X125805952Y-109029819D02*
X125805952Y-108029819D01*
X125805952Y-108029819D02*
X125710714Y-108172676D01*
X125710714Y-108172676D02*
X125615476Y-108267914D01*
X125615476Y-108267914D02*
X125520238Y-108315533D01*
X148241666Y-107954819D02*
X148241666Y-108669104D01*
X148241666Y-108669104D02*
X148194047Y-108811961D01*
X148194047Y-108811961D02*
X148098809Y-108907200D01*
X148098809Y-108907200D02*
X147955952Y-108954819D01*
X147955952Y-108954819D02*
X147860714Y-108954819D01*
X148622619Y-107954819D02*
X149241666Y-107954819D01*
X149241666Y-107954819D02*
X148908333Y-108335771D01*
X148908333Y-108335771D02*
X149051190Y-108335771D01*
X149051190Y-108335771D02*
X149146428Y-108383390D01*
X149146428Y-108383390D02*
X149194047Y-108431009D01*
X149194047Y-108431009D02*
X149241666Y-108526247D01*
X149241666Y-108526247D02*
X149241666Y-108764342D01*
X149241666Y-108764342D02*
X149194047Y-108859580D01*
X149194047Y-108859580D02*
X149146428Y-108907200D01*
X149146428Y-108907200D02*
X149051190Y-108954819D01*
X149051190Y-108954819D02*
X148765476Y-108954819D01*
X148765476Y-108954819D02*
X148670238Y-108907200D01*
X148670238Y-108907200D02*
X148622619Y-108859580D01*
X116116666Y-162079819D02*
X116116666Y-162794104D01*
X116116666Y-162794104D02*
X116069047Y-162936961D01*
X116069047Y-162936961D02*
X115973809Y-163032200D01*
X115973809Y-163032200D02*
X115830952Y-163079819D01*
X115830952Y-163079819D02*
X115735714Y-163079819D01*
X116545238Y-162175057D02*
X116592857Y-162127438D01*
X116592857Y-162127438D02*
X116688095Y-162079819D01*
X116688095Y-162079819D02*
X116926190Y-162079819D01*
X116926190Y-162079819D02*
X117021428Y-162127438D01*
X117021428Y-162127438D02*
X117069047Y-162175057D01*
X117069047Y-162175057D02*
X117116666Y-162270295D01*
X117116666Y-162270295D02*
X117116666Y-162365533D01*
X117116666Y-162365533D02*
X117069047Y-162508390D01*
X117069047Y-162508390D02*
X116497619Y-163079819D01*
X116497619Y-163079819D02*
X117116666Y-163079819D01*
X143416666Y-161754819D02*
X143416666Y-162469104D01*
X143416666Y-162469104D02*
X143369047Y-162611961D01*
X143369047Y-162611961D02*
X143273809Y-162707200D01*
X143273809Y-162707200D02*
X143130952Y-162754819D01*
X143130952Y-162754819D02*
X143035714Y-162754819D01*
X144321428Y-162088152D02*
X144321428Y-162754819D01*
X144083333Y-161707200D02*
X143845238Y-162421485D01*
X143845238Y-162421485D02*
X144464285Y-162421485D01*
X153409048Y-173783866D02*
X154170953Y-173783866D01*
X153790000Y-174164819D02*
X153790000Y-173402914D01*
X103016234Y-116619119D02*
X103016234Y-115619119D01*
X103016234Y-115619119D02*
X103254329Y-115619119D01*
X103254329Y-115619119D02*
X103397186Y-115666738D01*
X103397186Y-115666738D02*
X103492424Y-115761976D01*
X103492424Y-115761976D02*
X103540043Y-115857214D01*
X103540043Y-115857214D02*
X103587662Y-116047690D01*
X103587662Y-116047690D02*
X103587662Y-116190547D01*
X103587662Y-116190547D02*
X103540043Y-116381023D01*
X103540043Y-116381023D02*
X103492424Y-116476261D01*
X103492424Y-116476261D02*
X103397186Y-116571500D01*
X103397186Y-116571500D02*
X103254329Y-116619119D01*
X103254329Y-116619119D02*
X103016234Y-116619119D01*
X103968615Y-116571500D02*
X104111472Y-116619119D01*
X104111472Y-116619119D02*
X104349567Y-116619119D01*
X104349567Y-116619119D02*
X104444805Y-116571500D01*
X104444805Y-116571500D02*
X104492424Y-116523880D01*
X104492424Y-116523880D02*
X104540043Y-116428642D01*
X104540043Y-116428642D02*
X104540043Y-116333404D01*
X104540043Y-116333404D02*
X104492424Y-116238166D01*
X104492424Y-116238166D02*
X104444805Y-116190547D01*
X104444805Y-116190547D02*
X104349567Y-116142928D01*
X104349567Y-116142928D02*
X104159091Y-116095309D01*
X104159091Y-116095309D02*
X104063853Y-116047690D01*
X104063853Y-116047690D02*
X104016234Y-116000071D01*
X104016234Y-116000071D02*
X103968615Y-115904833D01*
X103968615Y-115904833D02*
X103968615Y-115809595D01*
X103968615Y-115809595D02*
X104016234Y-115714357D01*
X104016234Y-115714357D02*
X104063853Y-115666738D01*
X104063853Y-115666738D02*
X104159091Y-115619119D01*
X104159091Y-115619119D02*
X104397186Y-115619119D01*
X104397186Y-115619119D02*
X104540043Y-115666738D01*
X105492424Y-116619119D02*
X104920996Y-116619119D01*
X105206710Y-116619119D02*
X105206710Y-115619119D01*
X105206710Y-115619119D02*
X105111472Y-115761976D01*
X105111472Y-115761976D02*
X105016234Y-115857214D01*
X105016234Y-115857214D02*
X104920996Y-115904833D01*
%TO.C,J1*%
D12*
X124340000Y-112880000D02*
X124340000Y-111500000D01*
X125720000Y-112880000D02*
X124340000Y-112880000D01*
X126990000Y-110120000D02*
X144880000Y-110120000D01*
X126990000Y-112880000D02*
X126990000Y-110120000D01*
X126990000Y-112880000D02*
X144880000Y-112880000D01*
X144880000Y-112880000D02*
X144880000Y-110120000D01*
%TO.C,J3*%
X147195000Y-112880000D02*
X147195000Y-111500000D01*
X148575000Y-112880000D02*
X147195000Y-112880000D01*
X149845000Y-110120000D02*
X162655000Y-110120000D01*
X149845000Y-112880000D02*
X149845000Y-110120000D01*
X149845000Y-112880000D02*
X162655000Y-112880000D01*
X162655000Y-112880000D02*
X162655000Y-110120000D01*
%TO.C,J2*%
X115210000Y-161130000D02*
X115210000Y-159750000D01*
X116590000Y-161130000D02*
X115210000Y-161130000D01*
X117860000Y-158370000D02*
X140830000Y-158370000D01*
X117860000Y-161130000D02*
X117860000Y-158370000D01*
X117860000Y-161130000D02*
X140830000Y-161130000D01*
X140830000Y-161130000D02*
X140830000Y-158370000D01*
%TO.C,J4*%
X142115000Y-161130000D02*
X142115000Y-159750000D01*
X143495000Y-161130000D02*
X142115000Y-161130000D01*
X144765000Y-158370000D02*
X162655000Y-158370000D01*
X144765000Y-161130000D02*
X144765000Y-158370000D01*
X144765000Y-161130000D02*
X162655000Y-161130000D01*
X162655000Y-161130000D02*
X162655000Y-158370000D01*
%TO.C,SW2*%
X99200000Y-169950000D02*
X99200000Y-171450000D01*
X100450000Y-173950000D02*
X104950000Y-173950000D01*
X104950000Y-167450000D02*
X100450000Y-167450000D01*
X106200000Y-171450000D02*
X106200000Y-169950000D01*
%TO.C,BZ1*%
X163700000Y-176250000D02*
G75*
G02*
X151500000Y-176250000I-6100000J0D01*
G01*
X151500000Y-176250000D02*
G75*
G02*
X163700000Y-176250000I6100000J0D01*
G01*
%TO.C,D1*%
X135470000Y-174930000D02*
X135470000Y-178020000D01*
X135470000Y-174930170D02*
G75*
G02*
X141020000Y-176475000I2560000J-1544830D01*
G01*
X141020000Y-176475000D02*
G75*
G02*
X135470000Y-178019830I-2990000J0D01*
G01*
X140530000Y-176475000D02*
G75*
G02*
X135530000Y-176475000I-2500000J0D01*
G01*
X135530000Y-176475000D02*
G75*
G02*
X140530000Y-176475000I2500000J0D01*
G01*
%TO.C,SW1*%
X117500000Y-170000000D02*
X117500000Y-171500000D01*
X118750000Y-174000000D02*
X123250000Y-174000000D01*
X123250000Y-167500000D02*
X118750000Y-167500000D01*
X124500000Y-171500000D02*
X124500000Y-170000000D01*
%TO.C,RV1*%
X171180000Y-159355000D02*
X171180000Y-177495000D01*
X171180000Y-159355000D02*
X181920000Y-159355000D01*
X171180000Y-177495000D02*
X181920000Y-177495000D01*
X181920000Y-159355000D02*
X181920000Y-177495000D01*
X181920000Y-164805000D02*
X186920000Y-164805000D01*
X181920000Y-172045000D02*
X186920000Y-172045000D01*
X186920000Y-164805000D02*
X186920000Y-172045000D01*
X186920000Y-165305000D02*
X196920000Y-165305000D01*
X186920000Y-171545000D02*
X196920000Y-171545000D01*
X196920000Y-165305000D02*
X196920000Y-171545000D01*
%TO.C,R1*%
X134115000Y-167100000D02*
X134885000Y-167100000D01*
X142195000Y-167100000D02*
X141425000Y-167100000D01*
X134885000Y-165730000D02*
X141425000Y-165730000D01*
X141425000Y-168470000D01*
X134885000Y-168470000D01*
X134885000Y-165730000D01*
%TO.C,DS1*%
X101910520Y-117334300D02*
X101910520Y-153614300D01*
X101910520Y-153614300D02*
X182190520Y-153614300D01*
X101920520Y-117334300D02*
X102710520Y-117334300D01*
X105050520Y-122974300D02*
X178050520Y-122974300D01*
X105050520Y-147974300D02*
X105050520Y-122974300D01*
X108550520Y-116974300D02*
X111550520Y-116974300D01*
X109750800Y-142473620D02*
X109750800Y-128474300D01*
X110250520Y-127974300D02*
X173750520Y-127974300D01*
X173751180Y-142974300D02*
X110250520Y-142974300D01*
X174250520Y-128474300D02*
X174250520Y-142474300D01*
X178050520Y-122974300D02*
X178050520Y-147974300D01*
X178050520Y-147974300D02*
X105050520Y-147974300D01*
X182190520Y-117334300D02*
X102710520Y-117334300D01*
X182190520Y-153614300D02*
X182190520Y-117334300D01*
X109750800Y-128473140D02*
G75*
G02*
X110251180Y-127972760I500380J0D01*
G01*
X110251180Y-142974000D02*
G75*
G02*
X109750800Y-142473620I0J500380D01*
G01*
X173750520Y-127974300D02*
G75*
G02*
X174250520Y-128474300I0J-500000D01*
G01*
X174251560Y-142473620D02*
G75*
G02*
X173751180Y-142973940I-500340J20D01*
G01*
%TD*%
M02*
